<svg width="648" height="487" viewBox="0 0 648 487" fill="none" xmlns="http://www.w3.org/2000/svg" id="svg1174781060_30965">
<path d="M41.5316 1.0464C41.6646 0.686953 42.173 0.686952 42.306 1.0464L46.4816 12.3308C50.6633 23.6316 59.5732 32.5415 70.874 36.7232L82.1584 40.8988C82.5179 41.0318 82.5179 41.5402 82.1584 41.6732L70.874 45.8488C59.5732 50.0305 50.6633 58.9404 46.4816 70.2412L42.306 81.5256C42.173 81.885 41.6646 81.885 41.5316 81.5256L37.356 70.2412C33.1743 58.9404 24.2644 50.0305 12.9636 45.8488L1.67921 41.6732C1.31977 41.5402 1.31976 41.0318 1.67921 40.8988L12.9636 36.7232C24.2644 32.5415 33.1743 23.6316 37.356 12.3308L41.5316 1.0464Z" fill="#FFDFC3"></path>
<path d="M122.453 1.0464C122.586 0.686953 123.095 0.686952 123.228 1.0464L127.403 12.3308C131.585 23.6316 140.495 32.5415 151.796 36.7232L163.08 40.8988C163.44 41.0318 163.44 41.5402 163.08 41.6732L151.796 45.8488C140.495 50.0305 131.585 58.9404 127.403 70.2412L123.228 81.5256C123.095 81.885 122.586 81.885 122.453 81.5256L118.278 70.2412C114.096 58.9404 105.186 50.0305 93.8855 45.8488L82.6011 41.6732C82.2416 41.5402 82.2416 41.0318 82.6011 40.8988L93.8855 36.7232C105.186 32.5415 114.096 23.6316 118.278 12.3308L122.453 1.0464Z" fill="#FFDFC3"></path>
<path d="M203.371 1.0464C203.504 0.686953 204.013 0.686952 204.146 1.0464L208.321 12.3308C212.503 23.6316 221.413 32.5415 232.714 36.7232L243.998 40.8988C244.358 41.0318 244.358 41.5402 243.998 41.6732L232.714 45.8488C221.413 50.0305 212.503 58.9404 208.321 70.2412L204.146 81.5256C204.013 81.885 203.504 81.885 203.371 81.5256L199.196 70.2412C195.014 58.9404 186.104 50.0305 174.803 45.8488L163.519 41.6732C163.16 41.5402 163.16 41.0318 163.519 40.8988L174.803 36.7232C186.104 32.5415 195.014 23.6316 199.196 12.3308L203.371 1.0464Z" fill="#FFDFC3"></path>
<path d="M284.293 1.0464C284.426 0.686953 284.935 0.686952 285.068 1.0464L289.243 12.3308C293.425 23.6316 302.335 32.5415 313.636 36.7232L324.92 40.8988C325.28 41.0318 325.28 41.5402 324.92 41.6732L313.636 45.8488C302.335 50.0305 293.425 58.9404 289.243 70.2412L285.068 81.5256C284.935 81.885 284.426 81.885 284.293 81.5256L280.118 70.2412C275.936 58.9404 267.026 50.0305 255.725 45.8488L244.441 41.6732C244.081 41.5402 244.081 41.0318 244.441 40.8988L255.725 36.7232C267.026 32.5415 275.936 23.6316 280.118 12.3308L284.293 1.0464Z" fill="#FFDFC3"></path>
<path d="M365.215 1.0464C365.348 0.686953 365.857 0.686952 365.99 1.0464L370.165 12.3308C374.347 23.6316 383.257 32.5415 394.558 36.7232L405.842 40.8988C406.201 41.0318 406.201 41.5402 405.842 41.6732L394.558 45.8488C383.257 50.0305 374.347 58.9404 370.165 70.2412L365.99 81.5256C365.857 81.885 365.348 81.885 365.215 81.5256L361.04 70.2412C356.858 58.9404 347.948 50.0305 336.647 45.8488L325.363 41.6732C325.003 41.5402 325.003 41.0318 325.363 40.8988L336.647 36.7232C347.948 32.5415 356.858 23.6316 361.04 12.3308L365.215 1.0464Z" fill="#FFDFC3"></path>
<path d="M446.133 1.0464C446.266 0.686953 446.775 0.686952 446.908 1.0464L451.083 12.3308C455.265 23.6316 464.175 32.5415 475.476 36.7232L486.76 40.8988C487.119 41.0318 487.119 41.5402 486.76 41.6732L475.476 45.8488C464.175 50.0305 455.265 58.9404 451.083 70.2412L446.908 81.5256C446.775 81.885 446.266 81.885 446.133 81.5256L441.958 70.2412C437.776 58.9404 428.866 50.0305 417.565 45.8488L406.281 41.6732C405.921 41.5402 405.921 41.0318 406.281 40.8988L417.565 36.7232C428.866 32.5415 437.776 23.6316 441.958 12.3308L446.133 1.0464Z" fill="#FFDFC3"></path>
<path d="M527.055 1.0464C527.188 0.686953 527.696 0.686952 527.829 1.0464L532.005 12.3308C536.187 23.6316 545.097 32.5415 556.397 36.7232L567.682 40.8988C568.041 41.0318 568.041 41.5402 567.682 41.6732L556.397 45.8488C545.097 50.0305 536.187 58.9404 532.005 70.2412L527.829 81.5256C527.696 81.885 527.188 81.885 527.055 81.5256L522.879 70.2412C518.698 58.9404 509.788 50.0305 498.487 45.8488L487.203 41.6732C486.843 41.5402 486.843 41.0318 487.203 40.8988L498.487 36.7232C509.788 32.5415 518.698 23.6316 522.879 12.3308L527.055 1.0464Z" fill="#FFDFC3"></path>
<path d="M607.977 1.0464C608.11 0.686953 608.618 0.686952 608.751 1.0464L612.927 12.3308C617.109 23.6316 626.019 32.5415 637.319 36.7232L648.604 40.8988C648.963 41.0318 648.963 41.5402 648.604 41.6732L637.319 45.8488C626.019 50.0305 617.109 58.9404 612.927 70.2412L608.751 81.5256C608.618 81.885 608.11 81.885 607.977 81.5256L603.801 70.2412C599.62 58.9404 590.71 50.0305 579.409 45.8488L568.125 41.6732C567.765 41.5402 567.765 41.0318 568.125 40.8988L579.409 36.7232C590.71 32.5415 599.62 23.6316 603.801 12.3308L607.977 1.0464Z" fill="#FFDFC3"></path>
<path d="M41.5316 81.9671C41.6646 81.6076 42.173 81.6076 42.306 81.967L46.4816 93.2514C50.6633 104.552 59.5732 113.462 70.874 117.644L82.1584 121.819C82.5179 121.952 82.5179 122.461 82.1584 122.594L70.874 126.769C59.5732 130.951 50.6633 139.861 46.4816 151.162L42.306 162.446C42.173 162.806 41.6646 162.806 41.5316 162.446L37.356 151.162C33.1743 139.861 24.2644 130.951 12.9636 126.769L1.67921 122.594C1.31977 122.461 1.31976 121.952 1.67921 121.819L12.9636 117.644C24.2644 113.462 33.1743 104.552 37.356 93.2515L41.5316 81.9671Z" fill="#FFDFC3"></path>
<path d="M122.453 81.9671C122.586 81.6076 123.095 81.6076 123.228 81.967L127.403 93.2514C131.585 104.552 140.495 113.462 151.796 117.644L163.08 121.819C163.44 121.952 163.44 122.461 163.08 122.594L151.796 126.769C140.495 130.951 131.585 139.861 127.403 151.162L123.228 162.446C123.095 162.806 122.586 162.806 122.453 162.446L118.278 151.162C114.096 139.861 105.186 130.951 93.8855 126.769L82.6011 122.594C82.2416 122.461 82.2416 121.952 82.6011 121.819L93.8855 117.644C105.186 113.462 114.096 104.552 118.278 93.2515L122.453 81.9671Z" fill="#FFDFC3"></path>
<path d="M203.371 81.9671C203.504 81.6076 204.013 81.6076 204.146 81.967L208.321 93.2514C212.503 104.552 221.413 113.462 232.714 117.644L243.998 121.819C244.358 121.952 244.358 122.461 243.998 122.594L232.714 126.769C221.413 130.951 212.503 139.861 208.321 151.162L204.146 162.446C204.013 162.806 203.504 162.806 203.371 162.446L199.196 151.162C195.014 139.861 186.104 130.951 174.803 126.769L163.519 122.594C163.16 122.461 163.16 121.952 163.519 121.819L174.803 117.644C186.104 113.462 195.014 104.552 199.196 93.2515L203.371 81.9671Z" fill="#FFDFC3"></path>
<path d="M284.293 81.9671C284.426 81.6076 284.935 81.6076 285.068 81.967L289.243 93.2514C293.425 104.552 302.335 113.462 313.636 117.644L324.92 121.819C325.28 121.952 325.28 122.461 324.92 122.594L313.636 126.769C302.335 130.951 293.425 139.861 289.243 151.162L285.068 162.446C284.935 162.806 284.426 162.806 284.293 162.446L280.118 151.162C275.936 139.861 267.026 130.951 255.725 126.769L244.441 122.594C244.081 122.461 244.081 121.952 244.441 121.819L255.725 117.644C267.026 113.462 275.936 104.552 280.118 93.2515L284.293 81.9671Z" fill="#FFDFC3"></path>
<path d="M365.215 81.9671C365.348 81.6076 365.857 81.6076 365.99 81.967L370.165 93.2514C374.347 104.552 383.257 113.462 394.558 117.644L405.842 121.819C406.201 121.952 406.201 122.461 405.842 122.594L394.558 126.769C383.257 130.951 374.347 139.861 370.165 151.162L365.99 162.446C365.857 162.806 365.348 162.806 365.215 162.446L361.04 151.162C356.858 139.861 347.948 130.951 336.647 126.769L325.363 122.594C325.003 122.461 325.003 121.952 325.363 121.819L336.647 117.644C347.948 113.462 356.858 104.552 361.04 93.2515L365.215 81.9671Z" fill="#FFDFC3"></path>
<path d="M446.133 81.9671C446.266 81.6076 446.775 81.6076 446.908 81.967L451.083 93.2514C455.265 104.552 464.175 113.462 475.476 117.644L486.76 121.819C487.119 121.952 487.119 122.461 486.76 122.594L475.476 126.769C464.175 130.951 455.265 139.861 451.083 151.162L446.908 162.446C446.775 162.806 446.266 162.806 446.133 162.446L441.958 151.162C437.776 139.861 428.866 130.951 417.565 126.769L406.281 122.594C405.921 122.461 405.921 121.952 406.281 121.819L417.565 117.644C428.866 113.462 437.776 104.552 441.958 93.2515L446.133 81.9671Z" fill="#FFDFC3"></path>
<path d="M527.055 81.9671C527.188 81.6076 527.696 81.6076 527.829 81.967L532.005 93.2514C536.187 104.552 545.097 113.462 556.397 117.644L567.682 121.819C568.041 121.952 568.041 122.461 567.682 122.594L556.397 126.769C545.097 130.951 536.187 139.861 532.005 151.162L527.829 162.446C527.696 162.806 527.188 162.806 527.055 162.446L522.879 151.162C518.698 139.861 509.788 130.951 498.487 126.769L487.203 122.594C486.843 122.461 486.843 121.952 487.203 121.819L498.487 117.644C509.788 113.462 518.698 104.552 522.879 93.2515L527.055 81.9671Z" fill="#FFDFC3"></path>
<path d="M607.977 81.9671C608.11 81.6076 608.618 81.6076 608.751 81.967L612.927 93.2514C617.109 104.552 626.019 113.462 637.319 117.644L648.604 121.819C648.963 121.952 648.963 122.461 648.604 122.594L637.319 126.769C626.019 130.951 617.109 139.861 612.927 151.162L608.751 162.446C608.618 162.806 608.11 162.806 607.977 162.446L603.801 151.162C599.62 139.861 590.71 130.951 579.409 126.769L568.125 122.594C567.765 122.461 567.765 121.952 568.125 121.819L579.409 117.644C590.71 113.462 599.62 104.552 603.801 93.2515L607.977 81.9671Z" fill="#FFDFC3"></path>
<path d="M41.5316 162.887C41.6646 162.528 42.173 162.528 42.306 162.887L46.4816 174.172C50.6633 185.472 59.5732 194.382 70.874 198.564L82.1584 202.74C82.5179 202.873 82.5179 203.381 82.1584 203.514L70.874 207.69C59.5732 211.871 50.6633 220.781 46.4816 232.082L42.306 243.366C42.173 243.726 41.6646 243.726 41.5316 243.366L37.356 232.082C33.1743 220.781 24.2644 211.871 12.9636 207.69L1.67921 203.514C1.31977 203.381 1.31976 202.873 1.67921 202.74L12.9636 198.564C24.2644 194.382 33.1743 185.472 37.356 174.172L41.5316 162.887Z" fill="#FFDFC3"></path>
<path d="M122.453 162.887C122.586 162.528 123.095 162.528 123.228 162.887L127.403 174.172C131.585 185.472 140.495 194.382 151.796 198.564L163.08 202.74C163.44 202.873 163.44 203.381 163.08 203.514L151.796 207.69C140.495 211.871 131.585 220.781 127.403 232.082L123.228 243.366C123.095 243.726 122.586 243.726 122.453 243.366L118.278 232.082C114.096 220.781 105.186 211.871 93.8855 207.69L82.6011 203.514C82.2416 203.381 82.2416 202.873 82.6011 202.74L93.8855 198.564C105.186 194.382 114.096 185.472 118.278 174.172L122.453 162.887Z" fill="#FFDFC3"></path>
<path d="M203.371 162.887C203.504 162.528 204.013 162.528 204.146 162.887L208.321 174.172C212.503 185.472 221.413 194.382 232.714 198.564L243.998 202.74C244.358 202.873 244.358 203.381 243.998 203.514L232.714 207.69C221.413 211.871 212.503 220.781 208.321 232.082L204.146 243.366C204.013 243.726 203.504 243.726 203.371 243.366L199.196 232.082C195.014 220.781 186.104 211.871 174.803 207.69L163.519 203.514C163.16 203.381 163.16 202.873 163.519 202.74L174.803 198.564C186.104 194.382 195.014 185.472 199.196 174.172L203.371 162.887Z" fill="#FFDFC3"></path>
<path d="M284.293 162.887C284.426 162.528 284.935 162.528 285.068 162.887L289.243 174.172C293.425 185.472 302.335 194.382 313.636 198.564L324.92 202.74C325.28 202.873 325.28 203.381 324.92 203.514L313.636 207.69C302.335 211.871 293.425 220.781 289.243 232.082L285.068 243.366C284.935 243.726 284.426 243.726 284.293 243.366L280.118 232.082C275.936 220.781 267.026 211.871 255.725 207.69L244.441 203.514C244.081 203.381 244.081 202.873 244.441 202.74L255.725 198.564C267.026 194.382 275.936 185.472 280.118 174.172L284.293 162.887Z" fill="#FFDFC3"></path>
<path d="M365.215 162.887C365.348 162.528 365.857 162.528 365.99 162.887L370.165 174.172C374.347 185.472 383.257 194.382 394.558 198.564L405.842 202.74C406.201 202.873 406.201 203.381 405.842 203.514L394.558 207.69C383.257 211.871 374.347 220.781 370.165 232.082L365.99 243.366C365.857 243.726 365.348 243.726 365.215 243.366L361.04 232.082C356.858 220.781 347.948 211.871 336.647 207.69L325.363 203.514C325.003 203.381 325.003 202.873 325.363 202.74L336.647 198.564C347.948 194.382 356.858 185.472 361.04 174.172L365.215 162.887Z" fill="#FFDFC3"></path>
<path d="M446.133 162.887C446.266 162.528 446.775 162.528 446.908 162.887L451.083 174.172C455.265 185.472 464.175 194.382 475.476 198.564L486.76 202.74C487.119 202.873 487.119 203.381 486.76 203.514L475.476 207.69C464.175 211.871 455.265 220.781 451.083 232.082L446.908 243.366C446.775 243.726 446.266 243.726 446.133 243.366L441.958 232.082C437.776 220.781 428.866 211.871 417.565 207.69L406.281 203.514C405.921 203.381 405.921 202.873 406.281 202.74L417.565 198.564C428.866 194.382 437.776 185.472 441.958 174.172L446.133 162.887Z" fill="#FFDFC3"></path>
<path d="M527.055 162.887C527.188 162.528 527.696 162.528 527.829 162.887L532.005 174.172C536.187 185.472 545.097 194.382 556.397 198.564L567.682 202.74C568.041 202.873 568.041 203.381 567.682 203.514L556.397 207.69C545.097 211.871 536.187 220.781 532.005 232.082L527.829 243.366C527.696 243.726 527.188 243.726 527.055 243.366L522.879 232.082C518.698 220.781 509.788 211.871 498.487 207.69L487.203 203.514C486.843 203.381 486.843 202.873 487.203 202.74L498.487 198.564C509.788 194.382 518.698 185.472 522.879 174.172L527.055 162.887Z" fill="#FFDFC3"></path>
<path d="M607.977 162.887C608.11 162.528 608.618 162.528 608.751 162.887L612.927 174.172C617.109 185.472 626.019 194.382 637.319 198.564L648.604 202.74C648.963 202.873 648.963 203.381 648.604 203.514L637.319 207.69C626.019 211.871 617.109 220.781 612.927 232.082L608.751 243.366C608.618 243.726 608.11 243.726 607.977 243.366L603.801 232.082C599.62 220.781 590.71 211.871 579.409 207.69L568.125 203.514C567.765 203.381 567.765 202.873 568.125 202.74L579.409 198.564C590.71 194.382 599.62 185.472 603.801 174.172L607.977 162.887Z" fill="#FFDFC3"></path>
<path d="M41.5316 243.808C41.6646 243.449 42.173 243.449 42.306 243.808L46.4816 255.093C50.6633 266.393 59.5732 275.303 70.874 279.485L82.1584 283.661C82.5179 283.794 82.5179 284.302 82.1584 284.435L70.874 288.611C59.5732 292.792 50.6633 301.702 46.4816 313.003L42.306 324.287C42.173 324.647 41.6646 324.647 41.5316 324.287L37.356 313.003C33.1743 301.702 24.2644 292.792 12.9636 288.611L1.67921 284.435C1.31977 284.302 1.31976 283.794 1.67921 283.661L12.9636 279.485C24.2644 275.303 33.1743 266.393 37.356 255.093L41.5316 243.808Z" fill="#FFDFC3"></path>
<path d="M122.453 243.808C122.586 243.448 123.095 243.448 123.228 243.808L127.403 255.092C131.585 266.393 140.495 275.303 151.796 279.485L163.08 283.66C163.44 283.793 163.44 284.302 163.08 284.435L151.796 288.61C140.495 292.792 131.585 301.702 127.403 313.003L123.228 324.287C123.095 324.647 122.586 324.647 122.453 324.287L118.278 313.003C114.096 301.702 105.186 292.792 93.8855 288.61L82.6011 284.435C82.2416 284.302 82.2416 283.793 82.6011 283.66L93.8855 279.485C105.186 275.303 114.096 266.393 118.278 255.092L122.453 243.808Z" fill="#FFDFC3"></path>
<path d="M203.371 243.808C203.504 243.449 204.013 243.449 204.146 243.808L208.321 255.093C212.503 266.393 221.413 275.303 232.714 279.485L243.998 283.661C244.358 283.794 244.358 284.302 243.998 284.435L232.714 288.611C221.413 292.792 212.503 301.702 208.321 313.003L204.146 324.287C204.013 324.647 203.504 324.647 203.371 324.287L199.196 313.003C195.014 301.702 186.104 292.792 174.803 288.611L163.519 284.435C163.16 284.302 163.16 283.794 163.519 283.661L174.803 279.485C186.104 275.303 195.014 266.393 199.196 255.093L203.371 243.808Z" fill="#FFDFC3"></path>
<path d="M284.293 243.808C284.426 243.449 284.935 243.449 285.068 243.808L289.243 255.093C293.425 266.393 302.335 275.303 313.636 279.485L324.92 283.661C325.28 283.794 325.28 284.302 324.92 284.435L313.636 288.611C302.335 292.792 293.425 301.702 289.243 313.003L285.068 324.287C284.935 324.647 284.426 324.647 284.293 324.287L280.118 313.003C275.936 301.702 267.026 292.792 255.725 288.611L244.441 284.435C244.081 284.302 244.081 283.794 244.441 283.661L255.725 279.485C267.026 275.303 275.936 266.393 280.118 255.093L284.293 243.808Z" fill="#FFDFC3"></path>
<path d="M365.215 243.808C365.348 243.449 365.857 243.449 365.99 243.808L370.165 255.093C374.347 266.393 383.257 275.303 394.558 279.485L405.842 283.661C406.201 283.794 406.201 284.302 405.842 284.435L394.558 288.611C383.257 292.792 374.347 301.702 370.165 313.003L365.99 324.287C365.857 324.647 365.348 324.647 365.215 324.287L361.04 313.003C356.858 301.702 347.948 292.792 336.647 288.611L325.363 284.435C325.003 284.302 325.003 283.794 325.363 283.661L336.647 279.485C347.948 275.303 356.858 266.393 361.04 255.093L365.215 243.808Z" fill="#FFDFC3"></path>
<path d="M446.133 243.808C446.266 243.448 446.775 243.448 446.908 243.808L451.083 255.092C455.265 266.393 464.175 275.303 475.476 279.485L486.76 283.66C487.119 283.793 487.119 284.302 486.76 284.435L475.476 288.61C464.175 292.792 455.265 301.702 451.083 313.003L446.908 324.287C446.775 324.647 446.266 324.647 446.133 324.287L441.958 313.003C437.776 301.702 428.866 292.792 417.565 288.61L406.281 284.435C405.921 284.302 405.921 283.793 406.281 283.66L417.565 279.485C428.866 275.303 437.776 266.393 441.958 255.092L446.133 243.808Z" fill="#FFDFC3"></path>
<path d="M527.055 243.808C527.188 243.449 527.696 243.449 527.829 243.808L532.005 255.093C536.187 266.393 545.097 275.303 556.397 279.485L567.682 283.661C568.041 283.794 568.041 284.302 567.682 284.435L556.397 288.611C545.097 292.792 536.187 301.702 532.005 313.003L527.829 324.287C527.696 324.647 527.188 324.647 527.055 324.287L522.879 313.003C518.698 301.702 509.788 292.792 498.487 288.611L487.203 284.435C486.843 284.302 486.843 283.794 487.203 283.661L498.487 279.485C509.788 275.303 518.698 266.393 522.879 255.093L527.055 243.808Z" fill="#FFDFC3"></path>
<path d="M607.977 243.808C608.11 243.449 608.618 243.449 608.751 243.808L612.927 255.093C617.109 266.393 626.019 275.303 637.319 279.485L648.604 283.661C648.963 283.794 648.963 284.302 648.604 284.435L637.319 288.611C626.019 292.792 617.109 301.702 612.927 313.003L608.751 324.287C608.618 324.647 608.11 324.647 607.977 324.287L603.801 313.003C599.62 301.702 590.71 292.792 579.409 288.611L568.125 284.435C567.765 284.302 567.765 283.794 568.125 283.661L579.409 279.485C590.71 275.303 599.62 266.393 603.801 255.093L607.977 243.808Z" fill="#FFDFC3"></path>
<path d="M41.5316 324.729C41.6646 324.369 42.173 324.369 42.306 324.729L46.4816 336.013C50.6633 347.314 59.5732 356.224 70.874 360.405L82.1584 364.581C82.5179 364.714 82.5179 365.222 82.1584 365.355L70.874 369.531C59.5732 373.713 50.6633 382.623 46.4816 393.923L42.306 405.208C42.173 405.567 41.6646 405.567 41.5316 405.208L37.356 393.923C33.1743 382.623 24.2644 373.713 12.9636 369.531L1.67921 365.355C1.31977 365.222 1.31976 364.714 1.67921 364.581L12.9636 360.405C24.2644 356.224 33.1743 347.314 37.356 336.013L41.5316 324.729Z" fill="#FFDFC3"></path>
<path d="M122.453 324.729C122.586 324.369 123.095 324.369 123.228 324.729L127.403 336.013C131.585 347.314 140.495 356.224 151.796 360.405L163.08 364.581C163.44 364.714 163.44 365.222 163.08 365.355L151.796 369.531C140.495 373.713 131.585 382.623 127.403 393.923L123.228 405.208C123.095 405.567 122.586 405.567 122.453 405.208L118.278 393.923C114.096 382.623 105.186 373.713 93.8855 369.531L82.6011 365.355C82.2416 365.222 82.2416 364.714 82.6011 364.581L93.8855 360.405C105.186 356.224 114.096 347.314 118.278 336.013L122.453 324.729Z" fill="#FFDFC3"></path>
<path d="M203.371 324.729C203.504 324.369 204.013 324.369 204.146 324.729L208.321 336.013C212.503 347.314 221.413 356.224 232.714 360.405L243.998 364.581C244.358 364.714 244.358 365.222 243.998 365.355L232.714 369.531C221.413 373.713 212.503 382.623 208.321 393.923L204.146 405.208C204.013 405.567 203.504 405.567 203.371 405.208L199.196 393.923C195.014 382.623 186.104 373.713 174.803 369.531L163.519 365.355C163.16 365.222 163.16 364.714 163.519 364.581L174.803 360.405C186.104 356.224 195.014 347.314 199.196 336.013L203.371 324.729Z" fill="#FFDFC3"></path>
<path d="M284.293 324.729C284.426 324.369 284.935 324.369 285.068 324.729L289.243 336.013C293.425 347.314 302.335 356.224 313.636 360.405L324.92 364.581C325.28 364.714 325.28 365.222 324.92 365.355L313.636 369.531C302.335 373.713 293.425 382.623 289.243 393.923L285.068 405.208C284.935 405.567 284.426 405.567 284.293 405.208L280.118 393.923C275.936 382.623 267.026 373.713 255.725 369.531L244.441 365.355C244.081 365.222 244.081 364.714 244.441 364.581L255.725 360.405C267.026 356.224 275.936 347.314 280.118 336.013L284.293 324.729Z" fill="#FFDFC3"></path>
<path d="M365.215 324.729C365.348 324.369 365.857 324.369 365.99 324.729L370.165 336.013C374.347 347.314 383.257 356.224 394.558 360.405L405.842 364.581C406.201 364.714 406.201 365.222 405.842 365.355L394.558 369.531C383.257 373.713 374.347 382.623 370.165 393.923L365.99 405.208C365.857 405.567 365.348 405.567 365.215 405.208L361.04 393.923C356.858 382.623 347.948 373.713 336.647 369.531L325.363 365.355C325.003 365.222 325.003 364.714 325.363 364.581L336.647 360.405C347.948 356.224 356.858 347.314 361.04 336.013L365.215 324.729Z" fill="#FFDFC3"></path>
<path d="M446.133 324.729C446.266 324.369 446.775 324.369 446.908 324.729L451.083 336.013C455.265 347.314 464.175 356.224 475.476 360.405L486.76 364.581C487.119 364.714 487.119 365.222 486.76 365.355L475.476 369.531C464.175 373.713 455.265 382.623 451.083 393.923L446.908 405.208C446.775 405.567 446.266 405.567 446.133 405.208L441.958 393.923C437.776 382.623 428.866 373.713 417.565 369.531L406.281 365.355C405.921 365.222 405.921 364.714 406.281 364.581L417.565 360.405C428.866 356.224 437.776 347.314 441.958 336.013L446.133 324.729Z" fill="#FFDFC3"></path>
<path d="M527.055 324.729C527.188 324.369 527.696 324.369 527.829 324.729L532.005 336.013C536.187 347.314 545.097 356.224 556.397 360.405L567.682 364.581C568.041 364.714 568.041 365.222 567.682 365.355L556.397 369.531C545.097 373.713 536.187 382.623 532.005 393.923L527.829 405.208C527.696 405.567 527.188 405.567 527.055 405.208L522.879 393.923C518.698 382.623 509.788 373.713 498.487 369.531L487.203 365.355C486.843 365.222 486.843 364.714 487.203 364.581L498.487 360.405C509.788 356.224 518.698 347.314 522.879 336.013L527.055 324.729Z" fill="#FFDFC3"></path>
<path d="M607.977 324.729C608.11 324.369 608.618 324.369 608.751 324.729L612.927 336.013C617.109 347.314 626.019 356.224 637.319 360.405L648.604 364.581C648.963 364.714 648.963 365.222 648.604 365.355L637.319 369.531C626.019 373.713 617.109 382.623 612.927 393.923L608.751 405.208C608.618 405.567 608.11 405.567 607.977 405.208L603.801 393.923C599.62 382.623 590.71 373.713 579.409 369.531L568.125 365.355C567.765 365.222 567.765 364.714 568.125 364.581L579.409 360.405C590.71 356.224 599.62 347.314 603.801 336.013L607.977 324.729Z" fill="#FFDFC3"></path>
<path d="M41.5316 405.649C41.6646 405.29 42.173 405.29 42.306 405.649L46.4816 416.934C50.6633 428.234 59.5732 437.144 70.874 441.326L82.1584 445.502C82.5179 445.635 82.5179 446.143 82.1584 446.276L70.874 450.452C59.5732 454.633 50.6633 463.543 46.4816 474.844L42.306 486.128C42.173 486.488 41.6646 486.488 41.5316 486.128L37.356 474.844C33.1743 463.543 24.2644 454.633 12.9636 450.452L1.67921 446.276C1.31977 446.143 1.31976 445.635 1.67921 445.502L12.9636 441.326C24.2644 437.144 33.1743 428.234 37.356 416.934L41.5316 405.649Z" fill="#FFDFC3"></path>
<path d="M122.453 405.649C122.586 405.29 123.095 405.29 123.228 405.649L127.403 416.933C131.585 428.234 140.495 437.144 151.796 441.326L163.08 445.501C163.44 445.634 163.44 446.143 163.08 446.276L151.796 450.451C140.495 454.633 131.585 463.543 127.403 474.844L123.228 486.128C123.095 486.488 122.586 486.488 122.453 486.128L118.278 474.844C114.096 463.543 105.186 454.633 93.8855 450.451L82.6011 446.276C82.2416 446.143 82.2416 445.634 82.6011 445.501L93.8855 441.326C105.186 437.144 114.096 428.234 118.278 416.933L122.453 405.649Z" fill="#FFDFC3"></path>
<path d="M203.371 405.649C203.504 405.29 204.013 405.29 204.146 405.649L208.321 416.934C212.503 428.234 221.413 437.144 232.714 441.326L243.998 445.502C244.358 445.635 244.358 446.143 243.998 446.276L232.714 450.452C221.413 454.633 212.503 463.543 208.321 474.844L204.146 486.128C204.013 486.488 203.504 486.488 203.371 486.128L199.196 474.844C195.014 463.543 186.104 454.633 174.803 450.452L163.519 446.276C163.16 446.143 163.16 445.635 163.519 445.502L174.803 441.326C186.104 437.144 195.014 428.234 199.196 416.934L203.371 405.649Z" fill="#FFDFC3"></path>
<path d="M284.293 405.649C284.426 405.29 284.935 405.29 285.068 405.649L289.243 416.934C293.425 428.234 302.335 437.144 313.636 441.326L324.92 445.502C325.28 445.635 325.28 446.143 324.92 446.276L313.636 450.452C302.335 454.633 293.425 463.543 289.243 474.844L285.068 486.128C284.935 486.488 284.426 486.488 284.293 486.128L280.118 474.844C275.936 463.543 267.026 454.633 255.725 450.452L244.441 446.276C244.081 446.143 244.081 445.635 244.441 445.502L255.725 441.326C267.026 437.144 275.936 428.234 280.118 416.934L284.293 405.649Z" fill="#FFDFC3"></path>
<path d="M365.215 405.649C365.348 405.29 365.857 405.29 365.99 405.649L370.165 416.934C374.347 428.234 383.257 437.144 394.558 441.326L405.842 445.502C406.201 445.635 406.201 446.143 405.842 446.276L394.558 450.452C383.257 454.633 374.347 463.543 370.165 474.844L365.99 486.128C365.857 486.488 365.348 486.488 365.215 486.128L361.04 474.844C356.858 463.543 347.948 454.633 336.647 450.452L325.363 446.276C325.003 446.143 325.003 445.635 325.363 445.502L336.647 441.326C347.948 437.144 356.858 428.234 361.04 416.934L365.215 405.649Z" fill="#FFDFC3"></path>
<path d="M446.133 405.649C446.266 405.29 446.775 405.29 446.908 405.649L451.083 416.933C455.265 428.234 464.175 437.144 475.476 441.326L486.76 445.501C487.119 445.634 487.119 446.143 486.76 446.276L475.476 450.451C464.175 454.633 455.265 463.543 451.083 474.844L446.908 486.128C446.775 486.488 446.266 486.488 446.133 486.128L441.958 474.844C437.776 463.543 428.866 454.633 417.565 450.451L406.281 446.276C405.921 446.143 405.921 445.634 406.281 445.501L417.565 441.326C428.866 437.144 437.776 428.234 441.958 416.933L446.133 405.649Z" fill="#FFDFC3"></path>
<path d="M527.055 405.649C527.188 405.29 527.696 405.29 527.829 405.649L532.005 416.934C536.187 428.234 545.097 437.144 556.397 441.326L567.682 445.502C568.041 445.635 568.041 446.143 567.682 446.276L556.397 450.452C545.097 454.633 536.187 463.543 532.005 474.844L527.829 486.128C527.696 486.488 527.188 486.488 527.055 486.128L522.879 474.844C518.698 463.543 509.788 454.633 498.487 450.452L487.203 446.276C486.843 446.143 486.843 445.635 487.203 445.502L498.487 441.326C509.788 437.144 518.698 428.234 522.879 416.934L527.055 405.649Z" fill="#FFDFC3"></path>
<path d="M607.977 405.649C608.11 405.29 608.618 405.29 608.751 405.649L612.927 416.934C617.109 428.234 626.019 437.144 637.319 441.326L648.604 445.502C648.963 445.635 648.963 446.143 648.604 446.276L637.319 450.452C626.019 454.633 617.109 463.543 612.927 474.844L608.751 486.128C608.618 486.488 608.11 486.488 607.977 486.128L603.801 474.844C599.62 463.543 590.71 454.633 579.409 450.452L568.125 446.276C567.765 446.143 567.765 445.635 568.125 445.502L579.409 441.326C590.71 437.144 599.62 428.234 603.801 416.934L607.977 405.649Z" fill="#FFDFC3"></path>
<path d="M41.5316 486.57C41.6646 486.21 42.173 486.21 42.306 486.57L46.4816 497.854C50.6633 509.155 59.5732 518.065 70.874 522.247L82.1584 526.422C82.5179 526.555 82.5179 527.064 82.1584 527.197L70.874 531.372C59.5732 535.554 50.6633 544.464 46.4816 555.765L42.306 567.049C42.173 567.408 41.6646 567.408 41.5316 567.049L37.356 555.765C33.1743 544.464 24.2644 535.554 12.9636 531.372L1.67921 527.197C1.31977 527.064 1.31976 526.555 1.67921 526.422L12.9636 522.247C24.2644 518.065 33.1743 509.155 37.356 497.854L41.5316 486.57Z" fill="#FFDFC3"></path>
<path d="M122.453 486.57C122.586 486.211 123.095 486.211 123.228 486.57L127.403 497.854C131.585 509.155 140.495 518.065 151.796 522.247L163.08 526.422C163.44 526.555 163.44 527.064 163.08 527.197L151.796 531.372C140.495 535.554 131.585 544.464 127.403 555.765L123.228 567.049C123.095 567.409 122.586 567.409 122.453 567.049L118.278 555.765C114.096 544.464 105.186 535.554 93.8855 531.372L82.6011 527.197C82.2416 527.064 82.2416 526.555 82.6011 526.422L93.8855 522.247C105.186 518.065 114.096 509.155 118.278 497.854L122.453 486.57Z" fill="#FFDFC3"></path>
<path d="M203.371 486.57C203.504 486.21 204.013 486.21 204.146 486.57L208.321 497.854C212.503 509.155 221.413 518.065 232.714 522.247L243.998 526.422C244.358 526.555 244.358 527.064 243.998 527.197L232.714 531.372C221.413 535.554 212.503 544.464 208.321 555.765L204.146 567.049C204.013 567.408 203.504 567.408 203.371 567.049L199.196 555.765C195.014 544.464 186.104 535.554 174.803 531.372L163.519 527.197C163.16 527.064 163.16 526.555 163.519 526.422L174.803 522.247C186.104 518.065 195.014 509.155 199.196 497.854L203.371 486.57Z" fill="#FFDFC3"></path>
<path d="M284.293 486.57C284.426 486.21 284.935 486.21 285.068 486.57L289.243 497.854C293.425 509.155 302.335 518.065 313.636 522.247L324.92 526.422C325.28 526.555 325.28 527.064 324.92 527.197L313.636 531.372C302.335 535.554 293.425 544.464 289.243 555.765L285.068 567.049C284.935 567.408 284.426 567.408 284.293 567.049L280.118 555.765C275.936 544.464 267.026 535.554 255.725 531.372L244.441 527.197C244.081 527.064 244.081 526.555 244.441 526.422L255.725 522.247C267.026 518.065 275.936 509.155 280.118 497.854L284.293 486.57Z" fill="#FFDFC3"></path>
<path d="M365.215 486.57C365.348 486.21 365.857 486.21 365.99 486.57L370.165 497.854C374.347 509.155 383.257 518.065 394.558 522.247L405.842 526.422C406.201 526.555 406.201 527.064 405.842 527.197L394.558 531.372C383.257 535.554 374.347 544.464 370.165 555.765L365.99 567.049C365.857 567.408 365.348 567.408 365.215 567.049L361.04 555.765C356.858 544.464 347.948 535.554 336.647 531.372L325.363 527.197C325.003 527.064 325.003 526.555 325.363 526.422L336.647 522.247C347.948 518.065 356.858 509.155 361.04 497.854L365.215 486.57Z" fill="#FFDFC3"></path>
<path d="M446.133 486.57C446.266 486.211 446.775 486.211 446.908 486.57L451.083 497.854C455.265 509.155 464.175 518.065 475.476 522.247L486.76 526.422C487.119 526.555 487.119 527.064 486.76 527.197L475.476 531.372C464.175 535.554 455.265 544.464 451.083 555.765L446.908 567.049C446.775 567.409 446.266 567.409 446.133 567.049L441.958 555.765C437.776 544.464 428.866 535.554 417.565 531.372L406.281 527.197C405.921 527.064 405.921 526.555 406.281 526.422L417.565 522.247C428.866 518.065 437.776 509.155 441.958 497.854L446.133 486.57Z" fill="#FFDFC3"></path>
<path d="M527.055 486.57C527.188 486.21 527.696 486.21 527.829 486.57L532.005 497.854C536.187 509.155 545.097 518.065 556.397 522.247L567.682 526.422C568.041 526.555 568.041 527.064 567.682 527.197L556.397 531.372C545.097 535.554 536.187 544.464 532.005 555.765L527.829 567.049C527.696 567.408 527.188 567.408 527.055 567.049L522.879 555.765C518.698 544.464 509.788 535.554 498.487 531.372L487.203 527.197C486.843 527.064 486.843 526.555 487.203 526.422L498.487 522.247C509.788 518.065 518.698 509.155 522.879 497.854L527.055 486.57Z" fill="#FFDFC3"></path>
<path d="M607.977 486.57C608.11 486.21 608.618 486.21 608.751 486.57L612.927 497.854C617.109 509.155 626.019 518.065 637.319 522.247L648.604 526.422C648.963 526.555 648.963 527.064 648.604 527.197L637.319 531.372C626.019 535.554 617.109 544.464 612.927 555.765L608.751 567.049C608.618 567.408 608.11 567.408 607.977 567.049L603.801 555.765C599.62 544.464 590.71 535.554 579.409 531.372L568.125 527.197C567.765 527.064 567.765 526.555 568.125 526.422L579.409 522.247C590.71 518.065 599.62 509.155 603.801 497.854L607.977 486.57Z" fill="#FFDFC3"></path>
</svg>