<svg width="120" height="120" viewBox="0 0 120 120" fill="none" xmlns="http://www.w3.org/2000/svg" id="svg1222036419_2944">
<rect x="12.9453" y="12.944" width="93.9253" height="93.9253" rx="6.46501" fill="#CFFF92" stroke="#311F40" stroke-width="2px"></rect>
<path d="M28.5547 12.1306V0" stroke="#311F40" stroke-width="2px" stroke-linecap="round" fill="none"></path>
<path d="M44.2305 12.1306V0" stroke="#311F40" stroke-width="2px" stroke-linecap="round" fill="none"></path>
<path d="M59.9062 12.1306V0" stroke="#311F40" stroke-width="2px" stroke-linecap="round" fill="none"></path>
<path d="M75.5859 12.1306V0" stroke="#311F40" stroke-width="2px" stroke-linecap="round" fill="none"></path>
<path d="M91.2617 12.1306V0" stroke="#311F40" stroke-width="2px" stroke-linecap="round" fill="none"></path>
<path d="M28.3672 120V107.869" stroke="#311F40" stroke-width="2px" stroke-linecap="round" fill="none"></path>
<path d="M44.043 120V107.869" stroke="#311F40" stroke-width="2px" stroke-linecap="round" fill="none"></path>
<path d="M59.7188 120V107.869" stroke="#311F40" stroke-width="2px" stroke-linecap="round" fill="none"></path>
<path d="M75.3984 120V107.869" stroke="#311F40" stroke-width="2px" stroke-linecap="round" fill="none"></path>
<path d="M91.0742 120V107.869" stroke="#311F40" stroke-width="2px" stroke-linecap="round" fill="none"></path>
<path d="M120.002 91.4462H107.871" stroke="#311F40" stroke-width="2px" stroke-linecap="round" fill="none"></path>
<path d="M120.002 75.7694H107.871" stroke="#311F40" stroke-width="2px" stroke-linecap="round" fill="none"></path>
<path d="M120.002 60.0931H107.871" stroke="#311F40" stroke-width="2px" stroke-linecap="round" fill="none"></path>
<path d="M120.002 44.4165H107.871" stroke="#311F40" stroke-width="2px" stroke-linecap="round" fill="none"></path>
<path d="M120.002 28.7401H107.871" stroke="#311F40" stroke-width="2px" stroke-linecap="round" fill="none"></path>
<path d="M12.1306 91.4462H0" stroke="#311F40" stroke-width="2px" stroke-linecap="round" fill="none"></path>
<path d="M12.1306 75.7694H0" stroke="#311F40" stroke-width="2px" stroke-linecap="round" fill="none"></path>
<path d="M12.1306 60.0931H0" stroke="#311F40" stroke-width="2px" stroke-linecap="round" fill="none"></path>
<path d="M12.1306 44.4165H0" stroke="#311F40" stroke-width="2px" stroke-linecap="round" fill="none"></path>
<path d="M12.1306 28.7401H0" stroke="#311F40" stroke-width="2px" stroke-linecap="round" fill="none"></path>
<path d="M78.5158 25.0068L94.0586 39.0478V89.4119C94.0586 92.1841 91.8113 94.4314 89.0391 94.4314H29.6535C26.8813 94.4314 24.634 92.1841 24.634 89.4119V30.0263C24.634 27.2541 26.8813 25.0068 29.6535 25.0068H78.5158Z" fill="#FDF3EA" stroke="#311F40" stroke-width="2px" stroke-linecap="round"></path>
<rect x="34.2461" y="41.2491" width="27" height="6" rx="3" fill="#CFFF92" stroke="#311F40" stroke-width="2px"></rect>
<rect x="34.2461" y="54.2688" width="49" height="6" rx="3" fill="#CFFF92" stroke="#311F40" stroke-width="2px"></rect>
<rect x="34.2461" y="67.2881" width="49" height="6" rx="3" fill="#CFFF92" stroke="#311F40" stroke-width="2px"></rect>
<rect x="34.2461" y="80.3077" width="23" height="6" rx="3" fill="#CFFF92" stroke="#311F40" stroke-width="2px"></rect>
<path d="M81.7289 38.1904H92.3838L79.3826 26.5039V35.8441C79.3826 37.1399 80.433 38.1904 81.7289 38.1904Z" fill="#CFFF92" stroke="#311F40" stroke-width="2px" stroke-linecap="round"></path>
</svg>