<svg width="88" height="58" viewBox="0 0 88 58" fill="none" xmlns="http://www.w3.org/2000/svg" id="svg1761222041_715">
<rect width="87.9158" height="58" rx="29" fill="#CFFF92"></rect>
<path d="M42.5893 16.2948C43.0593 15.0246 44.8557 15.0246 45.3257 16.2948L48.1549 23.9406C48.3027 24.3399 48.6176 24.6548 49.0169 24.8025L56.6627 27.6317C57.9328 28.1017 57.9328 29.8982 56.6627 30.3682L49.0169 33.1974C48.6176 33.3452 48.3027 33.66 48.1549 34.0594L45.3257 41.7052C44.8557 42.9753 43.0593 42.9753 42.5893 41.7052L39.7601 34.0594C39.6123 33.66 39.2974 33.3452 38.8981 33.1974L31.2523 30.3682C29.9821 29.8982 29.9821 28.1017 31.2523 27.6317L38.8981 24.8025C39.2974 24.6548 39.6123 24.3399 39.7601 23.9406L42.5893 16.2948Z" fill="#015840"></path>
</svg>