<svg width="24" height="24" viewBox="0 0 24 24" fill="none" xmlns="http://www.w3.org/2000/svg" id="svg551845368_827">
<rect x="0.75" y="0.75" width="22.5" height="22.5" rx="11.25" fill="#CFFF92"></rect>
<rect x="0.75" y="0.75" width="22.5" height="22.5" rx="11.25" stroke="#015840" stroke-width="1.5"></rect>
<path d="M11.3291 5.75687C11.56 5.13274 12.4428 5.13274 12.6737 5.75687L14.0639 9.51386C14.1366 9.71009 14.2913 9.8648 14.4875 9.9374L18.2445 11.3276C18.8686 11.5586 18.8686 12.4413 18.2445 12.6723L14.4875 14.0625C14.2913 14.1351 14.1366 14.2898 14.0639 14.486L12.6737 18.243C12.4428 18.8671 11.56 18.8671 11.3291 18.243L9.93887 14.486C9.86626 14.2898 9.71155 14.1351 9.51533 14.0625L5.75833 12.6723C5.13421 12.4413 5.13421 11.5586 5.75833 11.3276L9.51533 9.9374C9.71155 9.8648 9.86626 9.71009 9.93887 9.51386L11.3291 5.75687Z" fill="#015840"></path>
</svg>