<svg xmlns="http://www.w3.org/2000/svg" xmlns:xlink="http://www.w3.org/1999/xlink" style="width: 100%; height: 100%" viewBox="0 0 22 22" preserveAspectRatio="none" width="22" height="22"><defs><svg width="22" height="22" viewBox="-1 -1 22 22" fill="none" xmlns="http://www.w3.org/2000/svg" id="svg1705126306_5664">
<path d="M13.6663 14.2403L13.1493 13.6969V13.6969L13.6663 14.2403ZM6.33112 14.2403L6.84808 13.6969L6.33112 14.2403ZM7.67463 15.5583L7.07828 16.0132L7.07828 16.0132L7.67463 15.5583ZM8.13744 16.6587L7.39589 16.771L8.13744 16.6587ZM12.3228 15.5583L12.9191 16.0132L12.9191 16.0132L12.3228 15.5583ZM11.86 16.6587L12.6015 16.771L11.86 16.6587ZM8.71536 19.4684L8.3232 20.1077H8.3232L8.71536 19.4684ZM8.31274 19.0406L8.97173 18.6825H8.97173L8.31274 19.0406ZM11.6847 19.0406L11.0257 18.6825L11.0257 18.6825L11.6847 19.0406ZM11.282 19.4684L10.8899 18.8291H10.8899L11.282 19.4684ZM10.7487 0.375C10.7487 -0.0392136 10.4129 -0.375 9.9987 -0.375C9.58448 -0.375 9.2487 -0.0392136 9.2487 0.375H10.7487ZM9.2487 1.29167C9.2487 1.70588 9.58448 2.04167 9.9987 2.04167C10.4129 2.04167 10.7487 1.70588 10.7487 1.29167H9.2487ZM1.7487 10.2917C2.16291 10.2917 2.4987 9.95588 2.4987 9.54167C2.4987 9.12745 2.16291 8.79167 1.7487 8.79167V10.2917ZM0.832031 8.79167C0.417818 8.79167 0.0820312 9.12745 0.0820312 9.54167C0.0820312 9.95588 0.417818 10.2917 0.832031 10.2917V8.79167ZM3.51003 4.11366C3.80293 4.40656 4.2778 4.40656 4.57069 4.11366C4.86359 3.82077 4.86359 3.3459 4.57069 3.053L3.51003 4.11366ZM4.02061 2.50291C3.72771 2.21002 3.25284 2.21002 2.95994 2.50291C2.66705 2.79581 2.66705 3.27068 2.95994 3.56357L4.02061 2.50291ZM15.4268 3.05294C15.1338 3.34579 15.1338 3.82067 15.4266 4.1136C15.7195 4.40653 16.1944 4.40659 16.4873 4.11373L15.4268 3.05294ZM17.0375 3.56364C17.3305 3.27078 17.3305 2.79591 17.0377 2.50298C16.7448 2.21005 16.2699 2.20999 15.977 2.50285L17.0375 3.56364ZM19.1654 10.2917C19.5796 10.2917 19.9154 9.95588 19.9154 9.54167C19.9154 9.12745 19.5796 8.79167 19.1654 8.79167V10.2917ZM18.2487 8.79167C17.8345 8.79167 17.4987 9.12745 17.4987 9.54167C17.4987 9.95588 17.8345 10.2917 18.2487 10.2917V8.79167ZM5.2487 9.88542C5.2487 7.02873 7.41753 4.79167 9.9987 4.79167V3.29167C6.50473 3.29167 3.7487 6.28727 3.7487 9.88542H5.2487ZM9.9987 4.79167C12.5799 4.79167 14.7487 7.02873 14.7487 9.88542H16.2487C16.2487 6.28727 13.4927 3.29167 9.9987 3.29167V4.79167ZM14.7487 9.88542C14.7487 11.4094 14.1258 12.7679 13.1493 13.6969L14.1832 14.7837C15.4561 13.5727 16.2487 11.822 16.2487 9.88542H14.7487ZM6.84808 13.6969C5.87156 12.7679 5.2487 11.4094 5.2487 9.88542H3.7487C3.7487 11.822 4.54132 13.5727 5.81416 14.7837L6.84808 13.6969ZM11.832 16.9271H8.16536V18.4271H11.832V16.9271ZM5.81416 14.7837C6.22659 15.176 6.53087 15.4656 6.74623 15.6753C6.8539 15.7802 6.93506 15.861 6.99419 15.9222C7.05872 15.989 7.079 16.0141 7.07828 16.0132L8.27099 15.1035C8.17481 14.9774 7.99848 14.8011 7.79288 14.6009C7.56962 14.3834 7.25749 14.0864 6.84808 13.6969L5.81416 14.7837ZM8.91536 17.6771C8.91536 17.1564 8.91772 16.8022 8.87898 16.5464L7.39589 16.771C7.41301 16.8841 7.41536 17.0859 7.41536 17.6771H8.91536ZM7.07828 16.0132C7.27186 16.267 7.29921 16.3147 7.31479 16.3518C7.33118 16.3907 7.347 16.4481 7.39589 16.771L8.87898 16.5464C8.83781 16.2745 8.80072 16.0157 8.69747 15.7702C8.59341 15.5228 8.43439 15.3178 8.27099 15.1035L7.07828 16.0132ZM13.1493 13.6969C12.7399 14.0864 12.4278 14.3834 12.2045 14.6009C11.9989 14.8011 11.8226 14.9774 11.7264 15.1035L12.9191 16.0132C12.9184 16.0141 12.9387 15.989 13.0032 15.9222C13.0623 15.861 13.1435 15.7802 13.2512 15.6753C13.4665 15.4656 13.7708 15.176 14.1832 14.7837L13.1493 13.6969ZM12.582 17.6771C12.582 17.0859 12.5844 16.8841 12.6015 16.771L11.1184 16.5464C11.0797 16.8022 11.082 17.1564 11.082 17.6771H12.582ZM11.7264 15.1035C11.563 15.3178 11.404 15.5228 11.2999 15.7702C11.1967 16.0157 11.1596 16.2745 11.1184 16.5464L12.6015 16.771C12.6504 16.4481 12.6662 16.3907 12.6826 16.3518C12.6982 16.3147 12.7255 16.267 12.9191 16.0132L11.7264 15.1035ZM9.9987 18.875C9.64135 18.875 9.4266 18.8742 9.26762 18.8589C9.19427 18.8518 9.15245 18.8432 9.1292 18.8367C9.11827 18.8336 9.11234 18.8313 9.1099 18.8302C9.10863 18.8297 9.10796 18.8293 9.10774 18.8292C9.10762 18.8292 9.10756 18.8291 9.10755 18.8291C9.10753 18.8291 9.10753 18.8291 9.10753 18.8291L8.3232 20.1077C8.58732 20.2697 8.86416 20.327 9.12384 20.352C9.37137 20.3758 9.67066 20.375 9.9987 20.375V18.875ZM7.41536 17.6771C7.41536 18.0282 7.41473 18.3387 7.4365 18.594C7.45902 18.8579 7.50969 19.1336 7.65374 19.3987L8.97173 18.6825C8.96841 18.6764 8.9454 18.6345 8.93107 18.4665C8.916 18.2898 8.91536 18.0542 8.91536 17.6771H7.41536ZM9.10753 18.8291C9.0559 18.7974 9.00753 18.7484 8.97173 18.6825L7.65374 19.3987C7.81103 19.6882 8.04038 19.9342 8.3232 20.1077L9.10753 18.8291ZM11.082 17.6771C11.082 18.0542 11.0814 18.2898 11.0663 18.4665C11.052 18.6345 11.029 18.6764 11.0257 18.6825L12.3437 19.3987C12.4877 19.1336 12.5384 18.8579 12.5609 18.594C12.5827 18.3387 12.582 18.0282 12.582 17.6771H11.082ZM9.9987 20.375C10.3267 20.375 10.626 20.3758 10.8736 20.352C11.1332 20.327 11.4101 20.2697 11.6742 20.1077L10.8899 18.8291C10.8899 18.8291 10.8899 18.8291 10.8898 18.8291C10.8898 18.8291 10.8898 18.8292 10.8897 18.8292C10.8894 18.8293 10.8888 18.8297 10.8875 18.8302C10.8851 18.8313 10.8791 18.8336 10.8682 18.8367C10.8449 18.8432 10.8031 18.8518 10.7298 18.8589C10.5708 18.8742 10.356 18.875 9.9987 18.875V20.375ZM11.0257 18.6825C10.9899 18.7484 10.9415 18.7974 10.8899 18.8291L11.6742 20.1077C11.957 19.9342 12.1864 19.6882 12.3437 19.3987L11.0257 18.6825ZM9.2487 0.375V1.29167H10.7487V0.375H9.2487ZM1.7487 8.79167H0.832031V10.2917H1.7487V8.79167ZM4.57069 3.053L4.02061 2.50291L2.95994 3.56357L3.51003 4.11366L4.57069 3.053ZM16.4873 4.11373L17.0375 3.56364L15.977 2.50285L15.4268 3.05294L16.4873 4.11373ZM19.1654 8.79167H18.2487V10.2917H19.1654V8.79167Z" fill="#015840"></path>
</svg></defs><use href="#svg1705126306_5664"></use></svg>