<svg xmlns="http://www.w3.org/2000/svg" xmlns:xlink="http://www.w3.org/1999/xlink" style="width: 100%; height: 100%" viewBox="0 0 22 22" preserveAspectRatio="none" width="22" height="22"><defs><svg width="22" height="22" viewBox="-1 -1 22 22" fill="none" xmlns="http://www.w3.org/2000/svg" id="svg-1829158406_674">
<path d="M8.16536 7.25221C8.32688 6.79308 8.64567 6.40592 9.06529 6.15931C9.4849 5.9127 9.97825 5.82255 10.458 5.90483C10.9377 5.98712 11.3728 6.23652 11.6862 6.60887C11.9997 6.98122 12.1712 7.45248 12.1705 7.9392C12.1705 9.31318 10.1095 10.0002 10.1095 10.0002V10.8191M10.1361 13.2085H10.1453M19.1654 10.0002C19.1654 15.0628 15.0613 19.1668 9.9987 19.1668C4.93609 19.1668 0.832031 15.0628 0.832031 10.0002C0.832031 4.93755 4.93609 0.833496 9.9987 0.833496C15.0613 0.833496 19.1654 4.93755 19.1654 10.0002Z" stroke="#015840" stroke-width="1.5px" stroke-linecap="round" fill="none"></path>
</svg></defs><use href="#svg-1829158406_674"></use></svg>