<svg xmlns="http://www.w3.org/2000/svg" xmlns:xlink="http://www.w3.org/1999/xlink" style="width: 100%; height: 100%" viewBox="0 0 22 22" preserveAspectRatio="none" width="22" height="22"><defs><svg width="22" height="22" viewBox="-1 -1 22 22" fill="none" xmlns="http://www.w3.org/2000/svg" id="svg1684906349_2533">
<path d="M8.40904 14.117L9.9987 18.2502L12.0297 13.8496C12.2955 13.2737 12.4284 12.9858 12.6162 12.7416C12.7827 12.5251 12.9805 12.3345 13.2031 12.1763C13.4542 11.9979 13.7469 11.8759 14.3324 11.6319L18.2487 10.0002L14.3324 8.36838C13.7469 8.12443 13.4542 8.00246 13.2031 7.82403C12.9805 7.66579 12.7827 7.47526 12.6162 7.25871C12.4284 7.01454 12.2955 6.72659 12.0297 6.1507L9.9987 1.75016L8.40903 5.88329C8.15053 6.55541 8.02127 6.89148 7.82027 7.17416C7.64212 7.42469 7.42323 7.64359 7.17269 7.82173C6.89001 8.02273 6.55395 8.15199 5.88182 8.4105L1.7487 10.0002L5.88182 11.5898C6.55395 11.8483 6.89001 11.9776 7.17269 12.1786C7.42323 12.3567 7.64212 12.5756 7.82027 12.8262C8.02127 13.1088 8.15052 13.4449 8.40904 14.117Z" stroke="#015840" stroke-width="1.5px" stroke-linecap="round" stroke-linejoin="round" fill="none"></path>
<path d="M2.68213 4.26874L3.1237 5.41683L3.68787 4.19446C3.7617 4.03449 3.79862 3.9545 3.85077 3.88668C3.89702 3.82652 3.95197 3.7736 4.01382 3.72964C4.08356 3.68008 4.16488 3.6462 4.32751 3.57843L5.41536 3.12516L4.32751 2.67189C4.16488 2.60413 4.08356 2.57025 4.01382 2.52068C3.95197 2.47673 3.89702 2.4238 3.85077 2.36365C3.79862 2.29582 3.7617 2.21584 3.68787 2.05587L3.1237 0.833496L2.68212 1.98159C2.61032 2.16829 2.57441 2.26164 2.51858 2.34016C2.46909 2.40975 2.40829 2.47056 2.3387 2.52004C2.26017 2.57588 2.16682 2.61178 1.98012 2.68359L0.832031 3.12516L1.98012 3.56674C2.16682 3.63854 2.26017 3.67445 2.3387 3.73028C2.40829 3.77977 2.46909 3.84057 2.51858 3.91016C2.57441 3.98869 2.61032 4.08204 2.68213 4.26874Z" stroke="#015840" stroke-width="1.5px" stroke-linecap="round" stroke-linejoin="round" fill="none"></path>
<path d="M16.4321 18.0187L16.8737 19.1668L17.4379 17.9445C17.5117 17.7845 17.5486 17.7045 17.6008 17.6367C17.647 17.5765 17.702 17.5236 17.7638 17.4796C17.8336 17.4301 17.9149 17.3962 18.0775 17.3284L19.1654 16.8752L18.0775 16.4219C17.9149 16.3541 17.8336 16.3202 17.7638 16.2707C17.702 16.2267 17.647 16.1738 17.6008 16.1136C17.5486 16.0458 17.5117 15.9658 17.4379 15.8059L16.8737 14.5835L16.4321 15.7316C16.3603 15.9183 16.3244 16.0116 16.2686 16.0902C16.2191 16.1598 16.1583 16.2206 16.0887 16.27C16.0102 16.3259 15.9168 16.3618 15.7301 16.4336L14.582 16.8752L15.7301 17.3167C15.9168 17.3885 16.0102 17.4244 16.0887 17.4803C16.1583 17.5298 16.2191 17.5906 16.2686 17.6602C16.3244 17.7387 16.3603 17.832 16.4321 18.0187Z" stroke="#015840" stroke-width="1.5px" stroke-linecap="round" stroke-linejoin="round" fill="none"></path>
</svg></defs><use href="#svg1684906349_2533"></use></svg>