<svg xmlns="http://www.w3.org/2000/svg" xmlns:xlink="http://www.w3.org/1999/xlink" style="width: 100%; height: 100%" viewBox="0 0 22 22" preserveAspectRatio="none" width="22" height="22"><defs><svg width="22" height="22" viewBox="-1 -1 22 22" fill="none" xmlns="http://www.w3.org/2000/svg" id="svg52191565_1992">
<path d="M11.3017 8.55292C11.0088 8.84581 11.0088 9.32069 11.3017 9.61358C11.5946 9.90648 12.0695 9.90648 12.3624 9.61358L11.3017 8.55292ZM19.6957 2.28025C19.9886 1.98736 19.9886 1.51248 19.6957 1.21959C19.4028 0.926695 18.9279 0.926695 18.635 1.21959L19.6957 2.28025ZM18.4154 9.99992C18.4154 14.6483 14.6471 18.4166 9.9987 18.4166V19.9166C15.4755 19.9166 19.9154 15.4767 19.9154 9.99992H18.4154ZM9.9987 18.4166C5.3503 18.4166 1.58203 14.6483 1.58203 9.99992H0.0820312C0.0820312 15.4767 4.52187 19.9166 9.9987 19.9166V18.4166ZM1.58203 9.99992C1.58203 5.35152 5.3503 1.58325 9.9987 1.58325V0.083252C4.52187 0.083252 0.0820312 4.52309 0.0820312 9.99992H1.58203ZM9.9987 1.58325C14.6471 1.58325 18.4154 5.35152 18.4154 9.99992H19.9154C19.9154 4.52309 15.4755 0.083252 9.9987 0.083252V1.58325ZM14.7487 9.99992C14.7487 12.6233 12.6221 14.7499 9.9987 14.7499V16.2499C13.4505 16.2499 16.2487 13.4517 16.2487 9.99992H14.7487ZM9.9987 14.7499C7.37535 14.7499 5.2487 12.6233 5.2487 9.99992H3.7487C3.7487 13.4517 6.54692 16.2499 9.9987 16.2499V14.7499ZM5.2487 9.99992C5.2487 7.37657 7.37535 5.24992 9.9987 5.24992V3.74992C6.54692 3.74992 3.7487 6.54814 3.7487 9.99992H5.2487ZM9.9987 5.24992C12.6221 5.24992 14.7487 7.37657 14.7487 9.99992H16.2487C16.2487 6.54814 13.4505 3.74992 9.9987 3.74992V5.24992ZM11.082 9.99992C11.082 10.5982 10.597 11.0833 9.9987 11.0833V12.5833C11.4254 12.5833 12.582 11.4267 12.582 9.99992H11.082ZM9.9987 11.0833C9.40039 11.0833 8.91536 10.5982 8.91536 9.99992H7.41536C7.41536 11.4267 8.57196 12.5833 9.9987 12.5833V11.0833ZM8.91536 9.99992C8.91536 9.40161 9.40039 8.91658 9.9987 8.91658V7.41658C8.57196 7.41658 7.41536 8.57318 7.41536 9.99992H8.91536ZM9.9987 8.91658C10.597 8.91658 11.082 9.40161 11.082 9.99992H12.582C12.582 8.57318 11.4254 7.41658 9.9987 7.41658V8.91658ZM12.3624 9.61358L19.6957 2.28025L18.635 1.21959L11.3017 8.55292L12.3624 9.61358Z" fill="#015840"></path>
</svg></defs><use href="#svg52191565_1992"></use></svg>