<svg xmlns="http://www.w3.org/2000/svg" xmlns:xlink="http://www.w3.org/1999/xlink" viewBox="0 0 188 56"><path d="M 28 56 C 12.536 56 0 56 0 56 L 0 0 C 0 0 12.536 0 28 0 L 160 0 C 175.464 0 188 0 188 0 L 188 56 C 188 56 175.464 56 160 56 Z" fill="rgb(70, 54, 83)"></path><path d="M 69.569 14.393 C 70.003 14.362 70.44 14.428 70.846 14.585 C 71.252 14.742 71.618 14.988 71.917 15.303 C 72.217 15.619 72.443 15.996 72.578 16.409 C 72.713 16.822 72.755 17.26 72.701 17.691 C 72.701 19.811 71.551 21.03 69.569 21.03 L 67.165 21.03 L 67.165 14.393 Z M 68.199 20.092 L 69.453 20.092 C 69.764 20.11 70.075 20.059 70.363 19.943 C 70.651 19.827 70.91 19.648 71.12 19.419 C 71.331 19.19 71.487 18.918 71.578 18.621 C 71.67 18.325 71.694 18.011 71.648 17.705 C 71.69 17.399 71.664 17.088 71.571 16.793 C 71.479 16.499 71.322 16.229 71.112 16.002 C 70.902 15.775 70.645 15.597 70.358 15.481 C 70.071 15.365 69.762 15.314 69.453 15.331 L 68.199 15.331 Z" fill="rgb(255,255,255)"></path><path d="M 73.868 18.524 C 73.837 18.195 73.874 17.862 73.979 17.549 C 74.084 17.235 74.253 16.947 74.476 16.702 C 74.699 16.457 74.971 16.262 75.274 16.128 C 75.577 15.994 75.905 15.925 76.237 15.925 C 76.568 15.925 76.896 15.994 77.2 16.128 C 77.503 16.262 77.775 16.457 77.998 16.702 C 78.221 16.947 78.39 17.235 78.495 17.549 C 78.599 17.862 78.637 18.195 78.605 18.524 C 78.638 18.853 78.6 19.186 78.496 19.5 C 78.391 19.814 78.222 20.103 77.999 20.348 C 77.776 20.593 77.504 20.789 77.201 20.924 C 76.897 21.058 76.569 21.127 76.237 21.127 C 75.905 21.127 75.576 21.058 75.273 20.924 C 74.969 20.789 74.697 20.593 74.474 20.348 C 74.251 20.103 74.082 19.814 73.978 19.5 C 73.873 19.186 73.836 18.853 73.868 18.524 Z M 77.586 18.524 C 77.586 17.438 77.097 16.803 76.238 16.803 C 75.377 16.803 74.892 17.438 74.892 18.524 C 74.892 19.618 75.377 20.248 76.238 20.248 C 77.097 20.248 77.586 19.614 77.586 18.524 Z" fill="rgb(255,255,255)"></path><path d="M 84.902 21.03 L 83.874 21.03 L 82.836 17.341 L 82.758 17.341 L 81.724 21.03 L 80.706 21.03 L 79.321 16.022 L 80.326 16.022 L 81.226 19.843 L 81.3 19.843 L 82.333 16.022 L 83.284 16.022 L 84.316 19.843 L 84.395 19.843 L 85.29 16.022 L 86.281 16.022 Z" fill="rgb(255,255,255)"></path><path d="M 87.446 16.022 L 88.4 16.022 L 88.4 16.817 L 88.474 16.817 C 88.6 16.532 88.812 16.292 89.08 16.132 C 89.349 15.972 89.661 15.9 89.973 15.925 C 90.217 15.907 90.463 15.943 90.691 16.032 C 90.919 16.122 91.124 16.261 91.291 16.44 C 91.458 16.619 91.582 16.832 91.655 17.066 C 91.728 17.299 91.747 17.546 91.711 17.788 L 91.711 21.03 L 90.72 21.03 L 90.72 18.036 C 90.72 17.231 90.369 16.831 89.636 16.831 C 89.47 16.823 89.305 16.851 89.151 16.913 C 88.997 16.976 88.858 17.07 88.744 17.191 C 88.63 17.311 88.544 17.455 88.491 17.612 C 88.438 17.769 88.419 17.935 88.437 18.1 L 88.437 21.03 L 87.446 21.03 Z" fill="rgb(255,255,255)"></path><path d="M 93.291 14.066 L 94.282 14.066 L 94.282 21.03 L 93.291 21.03 Z" fill="rgb(255,255,255)"></path><path d="M 95.66 18.524 C 95.628 18.195 95.666 17.862 95.771 17.549 C 95.875 17.235 96.045 16.947 96.268 16.702 C 96.491 16.457 96.763 16.262 97.066 16.128 C 97.369 15.994 97.697 15.925 98.029 15.925 C 98.36 15.925 98.688 15.994 98.991 16.128 C 99.295 16.262 99.567 16.457 99.79 16.702 C 100.013 16.947 100.182 17.235 100.287 17.549 C 100.391 17.862 100.429 18.195 100.398 18.524 C 100.43 18.853 100.392 19.186 100.288 19.5 C 100.183 19.814 100.014 20.103 99.791 20.348 C 99.568 20.593 99.296 20.789 98.993 20.924 C 98.689 21.058 98.361 21.127 98.029 21.127 C 97.697 21.127 97.368 21.058 97.065 20.924 C 96.761 20.789 96.489 20.593 96.266 20.348 C 96.043 20.103 95.874 19.814 95.769 19.5 C 95.665 19.186 95.628 18.853 95.66 18.524 Z M 99.377 18.524 C 99.377 17.438 98.888 16.803 98.03 16.803 C 97.168 16.803 96.684 17.438 96.684 18.524 C 96.684 19.618 97.168 20.248 98.03 20.248 C 98.888 20.248 99.377 19.614 99.377 18.524 Z" fill="rgb(255,255,255)"></path><path d="M 101.441 19.614 C 101.441 18.712 102.114 18.192 103.309 18.119 L 104.67 18.04 L 104.67 17.608 C 104.67 17.079 104.319 16.78 103.641 16.78 C 103.088 16.78 102.705 16.983 102.595 17.337 L 101.635 17.337 C 101.736 16.477 102.548 15.925 103.687 15.925 C 104.946 15.925 105.656 16.55 105.656 17.608 L 105.656 21.03 L 104.702 21.03 L 104.702 20.326 L 104.624 20.326 C 104.465 20.579 104.241 20.785 103.976 20.923 C 103.711 21.061 103.414 21.126 103.115 21.113 C 102.904 21.135 102.691 21.112 102.49 21.047 C 102.288 20.982 102.102 20.875 101.945 20.733 C 101.787 20.592 101.661 20.42 101.574 20.227 C 101.487 20.034 101.442 19.825 101.441 19.614 Z M 104.67 19.186 L 104.67 18.767 L 103.443 18.845 C 102.751 18.891 102.438 19.126 102.438 19.567 C 102.438 20.018 102.83 20.281 103.369 20.281 C 103.527 20.296 103.687 20.281 103.838 20.234 C 103.99 20.187 104.131 20.11 104.252 20.008 C 104.373 19.906 104.473 19.78 104.545 19.639 C 104.616 19.498 104.659 19.344 104.67 19.186 Z" fill="rgb(255,255,255)"></path><path d="M 106.959 18.524 C 106.959 16.941 107.775 15.938 109.044 15.938 C 109.358 15.924 109.669 15.999 109.942 16.155 C 110.215 16.31 110.438 16.54 110.584 16.817 L 110.658 16.817 L 110.658 14.066 L 111.649 14.066 L 111.649 21.03 L 110.7 21.03 L 110.7 20.239 L 110.621 20.239 C 110.463 20.514 110.233 20.741 109.955 20.895 C 109.677 21.049 109.362 21.124 109.044 21.113 C 107.766 21.113 106.959 20.11 106.959 18.524 Z M 107.983 18.524 C 107.983 19.586 108.485 20.225 109.325 20.225 C 110.16 20.225 110.677 19.577 110.677 18.528 C 110.677 17.484 110.155 16.826 109.325 16.826 C 108.491 16.826 107.983 17.47 107.983 18.524 Z" fill="rgb(255,255,255)"></path><path d="M 115.751 18.524 C 115.719 18.195 115.757 17.862 115.861 17.549 C 115.966 17.235 116.135 16.947 116.358 16.702 C 116.581 16.457 116.853 16.262 117.156 16.128 C 117.46 15.994 117.788 15.925 118.119 15.925 C 118.451 15.925 118.779 15.994 119.082 16.128 C 119.385 16.262 119.657 16.457 119.88 16.702 C 120.103 16.947 120.272 17.235 120.377 17.549 C 120.481 17.862 120.519 18.195 120.488 18.524 C 120.52 18.853 120.483 19.186 120.378 19.5 C 120.274 19.814 120.105 20.103 119.882 20.348 C 119.658 20.593 119.386 20.789 119.083 20.924 C 118.779 21.058 118.451 21.127 118.119 21.127 C 117.787 21.127 117.459 21.058 117.155 20.924 C 116.852 20.789 116.58 20.593 116.357 20.348 C 116.134 20.103 115.964 19.814 115.86 19.5 C 115.756 19.186 115.718 18.853 115.751 18.524 Z M 119.468 18.524 C 119.468 17.438 118.979 16.803 118.121 16.803 C 117.259 16.803 116.774 17.438 116.774 18.524 C 116.774 19.618 117.259 20.248 118.121 20.248 C 118.979 20.248 119.468 19.614 119.468 18.524 Z" fill="rgb(255,255,255)"></path><path d="M 121.818 16.022 L 122.772 16.022 L 122.772 16.817 L 122.846 16.817 C 122.972 16.532 123.184 16.292 123.452 16.132 C 123.721 15.972 124.033 15.9 124.345 15.925 C 124.589 15.907 124.835 15.943 125.063 16.032 C 125.291 16.122 125.496 16.261 125.663 16.44 C 125.83 16.619 125.955 16.832 126.027 17.066 C 126.1 17.299 126.119 17.546 126.083 17.788 L 126.083 21.03 L 125.092 21.03 L 125.092 18.036 C 125.092 17.231 124.741 16.831 124.008 16.831 C 123.842 16.823 123.677 16.851 123.523 16.913 C 123.369 16.976 123.23 17.07 123.116 17.191 C 123.002 17.311 122.916 17.455 122.863 17.612 C 122.81 17.769 122.791 17.935 122.809 18.1 L 122.809 21.03 L 121.818 21.03 Z" fill="rgb(255,255,255)"></path><path d="M 131.684 14.775 L 131.684 16.044 L 132.772 16.044 L 132.772 16.877 L 131.684 16.877 L 131.684 19.452 C 131.684 19.977 131.901 20.207 132.394 20.207 C 132.521 20.206 132.647 20.199 132.772 20.184 L 132.772 21.007 C 132.594 21.039 132.414 21.056 132.233 21.058 C 131.131 21.058 130.692 20.671 130.692 19.705 L 130.692 16.877 L 129.895 16.877 L 129.895 16.044 L 130.692 16.044 L 130.692 14.775 Z" fill="rgb(255,255,255)"></path><path d="M 134.126 14.066 L 135.109 14.066 L 135.109 16.826 L 135.187 16.826 C 135.319 16.538 135.537 16.297 135.811 16.137 C 136.085 15.976 136.402 15.904 136.719 15.929 C 136.962 15.916 137.205 15.957 137.43 16.048 C 137.656 16.139 137.859 16.279 138.024 16.457 C 138.189 16.636 138.313 16.848 138.386 17.079 C 138.46 17.311 138.481 17.556 138.448 17.796 L 138.448 21.03 L 137.456 21.03 L 137.456 18.04 C 137.456 17.24 137.083 16.835 136.382 16.835 C 136.212 16.821 136.04 16.845 135.88 16.904 C 135.72 16.963 135.574 17.056 135.454 17.177 C 135.333 17.298 135.241 17.443 135.183 17.604 C 135.125 17.764 135.102 17.935 135.118 18.105 L 135.118 21.03 L 134.126 21.03 Z" fill="rgb(255,255,255)"></path><path d="M 144.228 19.678 C 144.093 20.136 143.802 20.532 143.404 20.796 C 143.006 21.061 142.527 21.178 142.052 21.127 C 141.721 21.136 141.392 21.072 141.088 20.942 C 140.784 20.811 140.512 20.616 140.292 20.37 C 140.071 20.124 139.906 19.833 139.81 19.517 C 139.713 19.202 139.686 18.869 139.732 18.542 C 139.688 18.214 139.715 17.88 139.811 17.563 C 139.908 17.247 140.071 16.955 140.291 16.706 C 140.51 16.458 140.781 16.26 141.084 16.125 C 141.387 15.99 141.715 15.922 142.047 15.925 C 143.445 15.925 144.288 16.877 144.288 18.45 L 144.288 18.795 L 140.741 18.795 L 140.741 18.85 C 140.726 19.034 140.749 19.219 140.809 19.393 C 140.87 19.568 140.966 19.727 141.092 19.863 C 141.218 19.998 141.371 20.105 141.541 20.178 C 141.711 20.251 141.894 20.287 142.079 20.285 C 142.316 20.313 142.556 20.271 142.769 20.163 C 142.982 20.055 143.157 19.886 143.274 19.678 Z M 140.741 18.064 L 143.278 18.064 C 143.291 17.896 143.268 17.727 143.211 17.568 C 143.154 17.409 143.065 17.264 142.948 17.142 C 142.832 17.02 142.691 16.923 142.535 16.858 C 142.379 16.794 142.211 16.762 142.042 16.766 C 141.87 16.764 141.7 16.796 141.541 16.861 C 141.383 16.925 141.238 17.021 141.117 17.141 C 140.996 17.262 140.9 17.406 140.836 17.565 C 140.771 17.723 140.739 17.893 140.741 18.064 Z" fill="rgb(255,255,255)"></path><path d="M 55.005 27.262 C 55.017 26.334 55.264 25.424 55.724 24.616 C 56.183 23.808 56.84 23.13 57.633 22.644 C 57.13 21.926 56.465 21.336 55.692 20.919 C 54.919 20.503 54.06 20.271 53.182 20.244 C 51.309 20.048 49.493 21.362 48.538 21.362 C 47.565 21.362 46.096 20.263 44.513 20.296 C 43.49 20.329 42.492 20.626 41.618 21.157 C 40.744 21.689 40.022 22.438 39.524 23.33 C 37.367 27.054 38.976 32.528 41.043 35.538 C 42.077 37.013 43.285 38.659 44.866 38.601 C 46.413 38.537 46.991 37.617 48.858 37.617 C 50.708 37.617 51.251 38.601 52.864 38.564 C 54.524 38.537 55.57 37.083 56.567 35.595 C 57.31 34.544 57.882 33.384 58.261 32.155 C 57.297 31.748 56.473 31.067 55.894 30.197 C 55.315 29.327 55.006 28.306 55.005 27.262 Z" fill="rgb(255,255,255)"></path><path d="M 51.958 18.264 C 52.863 17.18 53.309 15.788 53.201 14.382 C 51.818 14.526 50.541 15.185 49.623 16.227 C 49.175 16.736 48.831 17.329 48.612 17.97 C 48.394 18.612 48.304 19.29 48.348 19.966 C 49.039 19.973 49.724 19.824 50.349 19.529 C 50.974 19.234 51.525 18.802 51.958 18.264 Z" fill="rgb(255,255,255)"></path><path d="M 74.561 34.869 L 69.282 34.869 L 68.014 38.602 L 65.778 38.602 L 70.778 24.79 L 73.102 24.79 L 78.103 38.602 L 75.828 38.602 Z M 69.829 33.146 L 74.014 33.146 L 71.951 27.087 L 71.893 27.087 Z" fill="rgb(255,255,255)"></path><path d="M 88.903 33.568 C 88.903 36.697 87.223 38.708 84.688 38.708 C 84.046 38.741 83.408 38.594 82.846 38.282 C 82.284 37.97 81.821 37.507 81.511 36.946 L 81.463 36.946 L 81.463 41.934 L 79.39 41.934 L 79.39 28.532 L 81.397 28.532 L 81.397 30.207 L 81.435 30.207 C 81.759 29.648 82.23 29.187 82.796 28.874 C 83.362 28.56 84.003 28.406 84.65 28.427 C 87.213 28.427 88.903 30.447 88.903 33.568 Z M 86.772 33.568 C 86.772 31.529 85.715 30.188 84.103 30.188 C 82.52 30.188 81.454 31.557 81.454 33.568 C 81.454 35.597 82.52 36.955 84.103 36.955 C 85.715 36.955 86.772 35.625 86.772 33.568 Z" fill="rgb(255,255,255)"></path><path d="M 100.017 33.568 C 100.017 36.697 98.338 38.708 95.803 38.708 C 95.161 38.741 94.522 38.594 93.96 38.282 C 93.398 37.97 92.936 37.507 92.626 36.946 L 92.578 36.946 L 92.578 41.934 L 90.505 41.934 L 90.505 28.532 L 92.511 28.532 L 92.511 30.207 L 92.549 30.207 C 92.874 29.648 93.344 29.187 93.91 28.874 C 94.477 28.56 95.118 28.406 95.765 28.427 C 98.328 28.427 100.017 30.447 100.017 33.568 Z M 97.887 33.568 C 97.887 31.529 96.83 30.188 95.218 30.188 C 93.634 30.188 92.569 31.557 92.569 33.568 C 92.569 35.597 93.634 36.955 95.218 36.955 C 96.83 36.955 97.887 35.625 97.887 33.568 Z" fill="rgb(255,255,255)"></path><path d="M 107.363 34.754 C 107.517 36.123 108.851 37.023 110.675 37.023 C 112.422 37.023 113.679 36.123 113.679 34.888 C 113.679 33.816 112.921 33.174 111.126 32.734 L 109.33 32.303 C 106.787 31.691 105.606 30.505 105.606 28.58 C 105.606 26.197 107.689 24.56 110.646 24.56 C 113.573 24.56 115.58 26.197 115.647 28.58 L 113.555 28.58 C 113.429 27.201 112.287 26.369 110.617 26.369 C 108.947 26.369 107.804 27.211 107.804 28.436 C 107.804 29.413 108.534 29.988 110.32 30.427 L 111.846 30.801 C 114.687 31.471 115.868 32.609 115.868 34.63 C 115.868 37.214 113.804 38.832 110.521 38.832 C 107.449 38.832 105.375 37.252 105.241 34.754 Z" fill="rgb(255,255,255)"></path><path d="M 120.342 26.149 L 120.342 28.532 L 122.262 28.532 L 122.262 30.169 L 120.342 30.169 L 120.342 35.721 C 120.342 36.583 120.726 36.985 121.57 36.985 C 121.798 36.981 122.026 36.965 122.252 36.937 L 122.252 38.564 C 121.873 38.635 121.487 38.667 121.101 38.66 C 119.056 38.66 118.259 37.894 118.259 35.941 L 118.259 30.169 L 116.791 30.169 L 116.791 28.532 L 118.259 28.532 L 118.259 26.149 Z" fill="rgb(255,255,255)"></path><path d="M 123.374 33.568 C 123.374 30.399 125.246 28.408 128.164 28.408 C 131.092 28.408 132.954 30.399 132.954 33.568 C 132.954 36.745 131.101 38.727 128.164 38.727 C 125.227 38.727 123.374 36.745 123.374 33.568 Z M 130.842 33.568 C 130.842 31.394 129.843 30.111 128.164 30.111 C 126.484 30.111 125.486 31.404 125.486 33.568 C 125.486 35.75 126.484 37.023 128.164 37.023 C 129.843 37.023 130.842 35.75 130.842 33.568 Z" fill="rgb(255,255,255)"></path><path d="M 134.663 28.532 L 136.64 28.532 L 136.64 30.246 L 136.688 30.246 C 136.822 29.711 137.136 29.238 137.579 28.906 C 138.021 28.575 138.564 28.406 139.117 28.427 C 139.356 28.426 139.594 28.452 139.827 28.504 L 139.827 30.437 C 139.526 30.345 139.211 30.303 138.896 30.312 C 138.595 30.3 138.295 30.353 138.016 30.468 C 137.737 30.582 137.487 30.755 137.282 30.975 C 137.076 31.195 136.921 31.457 136.827 31.743 C 136.733 32.028 136.702 32.331 136.736 32.629 L 136.736 38.602 L 134.663 38.602 Z" fill="rgb(255,255,255)"></path><path d="M 149.385 35.644 C 149.106 37.472 147.32 38.727 145.036 38.727 C 142.098 38.727 140.275 36.764 140.275 33.615 C 140.275 30.457 142.108 28.408 144.949 28.408 C 147.743 28.408 149.5 30.322 149.5 33.375 L 149.5 34.084 L 142.368 34.084 L 142.368 34.209 C 142.335 34.579 142.381 34.952 142.504 35.304 C 142.627 35.655 142.823 35.976 143.08 36.246 C 143.337 36.516 143.649 36.728 143.994 36.868 C 144.34 37.009 144.711 37.075 145.084 37.061 C 145.574 37.107 146.066 36.993 146.486 36.738 C 146.906 36.483 147.232 36.099 147.416 35.644 Z M 142.377 32.639 L 147.426 32.639 C 147.445 32.306 147.394 31.972 147.277 31.659 C 147.16 31.347 146.98 31.061 146.748 30.821 C 146.515 30.581 146.235 30.392 145.926 30.265 C 145.616 30.138 145.284 30.076 144.949 30.083 C 144.612 30.081 144.277 30.146 143.965 30.273 C 143.652 30.401 143.368 30.589 143.129 30.827 C 142.89 31.064 142.701 31.347 142.572 31.658 C 142.442 31.969 142.376 32.302 142.377 32.639 Z" fill="rgb(255,255,255)"></path></svg>