<svg width="1795" height="1022" viewBox="-85 -85 1795 1022" fill="none" xmlns="http://www.w3.org/2000/svg" id="svg1854662284_778">
<path d="M1625 368L1552.59 409.644C1510.83 433.656 1477.29 469.698 1456.33 513.065L1404.57 620.179C1365.91 700.196 1263.88 725.121 1192.67 671.946V671.946C1137.42 630.688 1120 555.593 1151.43 494.219L1266.67 269.17C1302.17 199.852 1277.17 114.876 1209.79 75.8189V75.8189C1138.25 34.3475 1046.58 60.3312 1007.45 133.175L703.273 699.303C660.344 779.203 556.171 801.823 483.971 746.921V746.921C425.259 702.275 408.531 621.132 444.8 556.906L551.625 367.738C591.137 297.768 570.494 209.196 504.119 163.905V163.905C429.822 113.208 328.103 136.35 283.052 214.2L122 492.5L76.6017 556.592C56.0498 585.606 30.2359 610.506 0.5 630V630" stroke="#3F2852" stroke-width="170px" fill="none"></path>
</svg>