<svg width="26" height="26" viewBox="0 0 26 26" fill="none" xmlns="http://www.w3.org/2000/svg" id="svg633766493_922">
<path d="M3.25 11.9167C3.25 7.83116 3.25 5.78841 4.5192 4.5192C5.78841 3.25 7.83116 3.25 11.9167 3.25H14.0833C18.1688 3.25 20.2116 3.25 21.4808 4.5192C22.75 5.78841 22.75 7.83116 22.75 11.9167V14.0833C22.75 18.1688 22.75 20.2116 21.4808 21.4808C20.2116 22.75 18.1688 22.75 14.0833 22.75H11.9167C7.83116 22.75 5.78841 22.75 4.5192 21.4808C3.25 20.2116 3.25 18.1688 3.25 14.0833V11.9167Z" stroke="white" stroke-width="2.47619"></path>
<path d="M17.875 9.75C18.7725 9.75 19.5 9.02246 19.5 8.125C19.5 7.22754 18.7725 6.5 17.875 6.5C16.9775 6.5 16.25 7.22754 16.25 8.125C16.25 9.02246 16.9775 9.75 17.875 9.75Z" fill="white"></path>
<path d="M13 16.25C14.7949 16.25 16.25 14.7949 16.25 13C16.25 11.2051 14.7949 9.75 13 9.75C11.2051 9.75 9.75 11.2051 9.75 13C9.75 14.7949 11.2051 16.25 13 16.25Z" stroke="white" stroke-width="2.47619"></path>
</svg>