<svg width="26" height="26" viewBox="0 0 26 26" fill="none" xmlns="http://www.w3.org/2000/svg" id="svg-1756035819_1348">
<g clip-path="url(#svg-1756035819_1348_clip0_105_3314)">
<path d="M7.78874 9.23096H3.87409C3.70035 9.23096 3.55957 9.3718 3.55957 9.54547V22.1216C3.55957 22.2953 3.70035 22.4361 3.87409 22.4361H7.78874C7.96248 22.4361 8.10326 22.2953 8.10326 22.1216V9.54547C8.10326 9.3718 7.96248 9.23096 7.78874 9.23096Z" fill="white"></path>
<path d="M5.83318 2.979C4.4088 2.979 3.25 4.13655 3.25 5.55936C3.25 6.98279 4.4088 8.14078 5.83318 8.14078C7.25643 8.14078 8.41429 6.98273 8.41429 5.55936C8.41435 4.13655 7.25643 2.979 5.83318 2.979Z" fill="white"></path>
<path d="M17.7462 8.91821C16.1739 8.91821 15.0117 9.59411 14.3067 10.3621V9.5453C14.3067 9.37162 14.1659 9.23078 13.9922 9.23078H10.2432C10.0695 9.23078 9.92871 9.37162 9.92871 9.5453V22.1214C9.92871 22.2951 10.0695 22.4359 10.2432 22.4359H14.1493C14.3231 22.4359 14.4638 22.2951 14.4638 22.1214V15.8991C14.4638 13.8024 15.0334 12.9855 16.495 12.9855C18.0868 12.9855 18.2133 14.2951 18.2133 16.007V22.1215C18.2133 22.2952 18.3541 22.436 18.5278 22.436H22.4354C22.6091 22.436 22.7499 22.2952 22.7499 22.1215V15.2233C22.7499 12.1055 22.1554 8.91821 17.7462 8.91821Z" fill="white"></path>
</g>
<defs>
<clipPath id="svg-1756035819_1348_clip0_105_3314">
<rect width="19.5" height="19.5" fill="white" transform="translate(3.25 2.95752)"></rect>
</clipPath>
</defs>
</svg>