<svg xmlns="http://www.w3.org/2000/svg" xmlns:xlink="http://www.w3.org/1999/xlink" viewBox="0 0 188 56"><path d="M 28 56 C 12.536 56 0 56 0 56 L 0 0 C 0 0 12.536 0 28 0 L 160 0 C 175.464 0 188 0 188 0 L 188 56 C 188 56 175.464 56 160 56 Z" fill="rgb(70, 54, 83)"></path><path d="M 72.205 17.152 C 72.223 17.542 72.161 17.932 72.024 18.298 C 71.886 18.664 71.677 18.998 71.407 19.281 C 71.104 19.593 70.739 19.838 70.336 19.999 C 69.932 20.161 69.499 20.235 69.065 20.218 C 68.628 20.227 68.194 20.148 67.789 19.983 C 67.384 19.818 67.018 19.572 66.712 19.26 C 66.092 18.625 65.744 17.773 65.744 16.886 C 65.744 15.998 66.092 15.146 66.712 14.512 C 67.186 14.048 67.787 13.735 68.438 13.612 C 69.09 13.489 69.763 13.561 70.374 13.82 C 70.758 13.977 71.1 14.222 71.375 14.533 L 70.811 15.097 C 70.599 14.842 70.331 14.641 70.028 14.508 C 69.725 14.374 69.395 14.314 69.065 14.331 C 68.647 14.334 68.237 14.439 67.87 14.637 C 67.502 14.835 67.189 15.12 66.957 15.467 C 66.726 15.814 66.583 16.212 66.54 16.627 C 66.498 17.043 66.558 17.462 66.716 17.848 C 66.873 18.235 67.122 18.577 67.442 18.845 C 67.762 19.113 68.143 19.298 68.551 19.385 C 68.96 19.471 69.383 19.457 69.784 19.342 C 70.185 19.228 70.552 19.017 70.853 18.727 C 71.178 18.371 71.367 17.911 71.385 17.428 L 69.065 17.428 L 69.065 16.662 L 72.162 16.662 C 72.187 16.824 72.201 16.988 72.205 17.152 Z" fill="rgb(255,255,255)" stroke-width="0.411304" stroke="rgb(255,255,255)" stroke-miterlimit="10" stroke-dasharray=""></path><path d="M 77.081 14.49 L 74.207 14.49 L 74.207 16.513 L 76.825 16.513 L 76.825 17.279 L 74.207 17.279 L 74.207 19.302 L 77.081 19.302 L 77.081 20.09 L 73.376 20.09 L 73.376 13.703 L 77.081 13.703 Z" fill="rgb(255,255,255)" stroke-width="0.411304" stroke="rgb(255,255,255)" stroke-miterlimit="10" stroke-dasharray=""></path><path d="M 80.573 20.09 L 79.753 20.09 L 79.753 14.49 L 77.965 14.49 L 77.965 13.703 L 82.404 13.703 L 82.404 14.49 L 80.573 14.49 Z" fill="rgb(255,255,255)" stroke-width="0.411304" stroke="rgb(255,255,255)" stroke-miterlimit="10" stroke-dasharray=""></path><path d="M 85.534 20.09 L 85.534 13.703 L 86.353 13.703 L 86.353 20.09 Z" fill="rgb(255,255,255)" stroke-width="0.411304" stroke="rgb(255,255,255)" stroke-miterlimit="10" stroke-dasharray=""></path><path d="M 89.994 20.09 L 89.174 20.09 L 89.174 14.49 L 87.386 14.49 L 87.386 13.703 L 91.772 13.703 L 91.772 14.49 L 89.994 14.49 Z" fill="rgb(255,255,255)" stroke-width="0.411304" stroke="rgb(255,255,255)" stroke-miterlimit="10" stroke-dasharray=""></path><path d="M 100.086 19.26 C 99.779 19.567 99.414 19.811 99.012 19.978 C 98.61 20.145 98.179 20.23 97.744 20.23 C 97.309 20.23 96.879 20.145 96.477 19.978 C 96.075 19.811 95.71 19.567 95.402 19.26 C 94.8 18.62 94.465 17.775 94.465 16.896 C 94.465 16.018 94.8 15.173 95.402 14.533 C 95.703 14.216 96.067 13.967 96.47 13.8 C 96.874 13.633 97.308 13.553 97.744 13.564 C 98.18 13.557 98.613 13.64 99.016 13.806 C 99.418 13.973 99.783 14.22 100.086 14.533 C 100.392 14.844 100.633 15.214 100.794 15.62 C 100.955 16.026 101.033 16.46 101.023 16.896 C 101.037 17.333 100.961 17.769 100.8 18.175 C 100.639 18.582 100.396 18.951 100.086 19.26 Z M 96.009 18.727 C 96.236 18.957 96.506 19.14 96.804 19.264 C 97.102 19.389 97.421 19.453 97.744 19.453 C 98.067 19.453 98.387 19.389 98.685 19.264 C 98.983 19.14 99.253 18.957 99.48 18.727 C 99.939 18.228 100.194 17.575 100.194 16.896 C 100.194 16.218 99.939 15.564 99.48 15.065 C 99.253 14.835 98.983 14.653 98.685 14.528 C 98.387 14.404 98.067 14.34 97.744 14.34 C 97.421 14.34 97.102 14.404 96.804 14.528 C 96.506 14.653 96.236 14.835 96.009 15.065 C 95.55 15.564 95.295 16.218 95.295 16.896 C 95.295 17.575 95.55 18.228 96.009 18.727 Z" fill="rgb(255,255,255)" stroke-width="0.411304" stroke="rgb(255,255,255)" stroke-miterlimit="10" stroke-dasharray=""></path><path d="M 102.184 20.09 L 102.184 13.703 L 103.174 13.703 L 106.282 18.674 L 106.282 17.439 L 106.282 13.703 L 107.102 13.703 L 107.102 20.09 L 106.25 20.09 L 103.003 14.884 L 103.003 16.108 L 103.003 20.09 Z" fill="rgb(255,255,255)" stroke-width="0.411304" stroke="rgb(255,255,255)" stroke-miterlimit="10" stroke-dasharray=""></path><path d="M 94.263 29.405 C 93.366 29.407 92.49 29.675 91.745 30.175 C 91.001 30.675 90.421 31.385 90.08 32.214 C 89.738 33.044 89.651 33.956 89.828 34.835 C 90.005 35.715 90.439 36.522 91.074 37.154 C 91.71 37.787 92.519 38.217 93.399 38.39 C 94.279 38.563 95.191 38.471 96.019 38.126 C 96.847 37.781 97.554 37.198 98.05 36.451 C 98.547 35.704 98.811 34.826 98.809 33.929 C 98.817 33.331 98.706 32.737 98.48 32.183 C 98.254 31.629 97.919 31.125 97.495 30.703 C 97.071 30.281 96.566 29.949 96.011 29.726 C 95.456 29.502 94.861 29.393 94.263 29.405 Z M 94.263 36.676 C 93.713 36.714 93.165 36.587 92.689 36.309 C 92.212 36.032 91.831 35.617 91.593 35.12 C 91.356 34.623 91.273 34.066 91.356 33.521 C 91.44 32.976 91.685 32.469 92.06 32.065 C 92.436 31.662 92.924 31.381 93.461 31.258 C 93.999 31.136 94.56 31.178 95.073 31.379 C 95.587 31.58 96.027 31.931 96.339 32.385 C 96.65 32.84 96.817 33.378 96.818 33.929 C 96.835 34.279 96.782 34.628 96.662 34.956 C 96.542 35.284 96.358 35.586 96.12 35.842 C 95.882 36.098 95.595 36.303 95.276 36.447 C 94.957 36.59 94.613 36.668 94.263 36.676 Z M 84.341 29.405 C 83.444 29.407 82.568 29.675 81.823 30.175 C 81.079 30.675 80.499 31.385 80.158 32.214 C 79.817 33.044 79.729 33.956 79.906 34.835 C 80.083 35.715 80.517 36.522 81.153 37.154 C 81.788 37.787 82.597 38.217 83.478 38.39 C 84.358 38.563 85.269 38.471 86.097 38.126 C 86.925 37.781 87.632 37.198 88.129 36.451 C 88.625 35.704 88.889 34.826 88.887 33.929 C 88.896 33.331 88.784 32.737 88.558 32.183 C 88.333 31.629 87.998 31.125 87.574 30.703 C 87.149 30.281 86.645 29.949 86.089 29.726 C 85.534 29.502 84.94 29.393 84.341 29.405 Z M 84.341 36.676 C 83.791 36.714 83.243 36.587 82.767 36.309 C 82.291 36.032 81.909 35.617 81.671 35.12 C 81.434 34.623 81.351 34.066 81.435 33.521 C 81.518 32.976 81.763 32.469 82.139 32.065 C 82.514 31.662 83.002 31.381 83.539 31.258 C 84.077 31.136 84.638 31.178 85.152 31.379 C 85.665 31.58 86.105 31.931 86.417 32.385 C 86.728 32.84 86.895 33.378 86.896 33.929 C 86.913 34.279 86.86 34.628 86.74 34.956 C 86.621 35.284 86.436 35.586 86.198 35.842 C 85.96 36.098 85.673 36.303 85.354 36.447 C 85.035 36.59 84.691 36.668 84.341 36.676 Z M 72.546 30.8 L 72.546 32.716 L 77.145 32.716 C 77.073 33.618 76.697 34.47 76.08 35.132 C 75.619 35.602 75.064 35.97 74.451 36.212 C 73.839 36.455 73.183 36.565 72.525 36.538 C 71.169 36.538 69.87 35.999 68.911 35.041 C 67.953 34.083 67.415 32.783 67.415 31.428 C 67.415 30.072 67.953 28.773 68.911 27.814 C 69.87 26.856 71.169 26.318 72.525 26.318 C 73.824 26.298 75.078 26.792 76.016 27.691 L 77.368 26.339 C 76.734 25.712 75.98 25.217 75.152 24.884 C 74.324 24.552 73.438 24.387 72.546 24.401 C 71.599 24.365 70.655 24.519 69.77 24.856 C 68.885 25.193 68.077 25.705 67.394 26.361 C 66.711 27.018 66.168 27.806 65.797 28.677 C 65.427 29.549 65.235 30.486 65.235 31.433 C 65.235 32.38 65.427 33.318 65.797 34.189 C 66.168 35.06 66.711 35.848 67.394 36.505 C 68.077 37.161 68.885 37.673 69.77 38.01 C 70.655 38.347 71.599 38.501 72.546 38.465 C 73.456 38.501 74.365 38.344 75.21 38.005 C 76.056 37.665 76.821 37.151 77.454 36.495 C 78.571 35.267 79.167 33.652 79.114 31.992 C 79.118 31.592 79.086 31.193 79.018 30.8 Z M 120.782 32.29 C 120.504 31.473 119.985 30.76 119.293 30.245 C 118.601 29.73 117.769 29.437 116.907 29.405 C 116.324 29.404 115.748 29.522 115.213 29.753 C 114.678 29.983 114.196 30.321 113.797 30.745 C 113.398 31.169 113.09 31.67 112.893 32.218 C 112.695 32.766 112.612 33.348 112.648 33.929 C 112.639 34.901 112.945 35.85 113.519 36.634 C 114.094 37.418 114.906 37.994 115.836 38.278 C 116.765 38.562 117.762 38.538 118.676 38.209 C 119.591 37.88 120.374 37.263 120.909 36.452 L 119.366 35.388 C 119.136 35.771 118.809 36.088 118.419 36.307 C 118.029 36.525 117.588 36.638 117.141 36.633 C 116.679 36.652 116.223 36.531 115.832 36.286 C 115.44 36.041 115.132 35.684 114.948 35.26 L 121.005 32.758 Z M 114.607 33.802 C 114.585 33.471 114.63 33.139 114.738 32.826 C 114.847 32.513 115.016 32.224 115.237 31.978 C 115.458 31.731 115.726 31.53 116.026 31.389 C 116.325 31.247 116.65 31.166 116.981 31.151 C 117.324 31.13 117.666 31.211 117.963 31.383 C 118.26 31.555 118.5 31.812 118.652 32.12 Z M 109.689 38.188 L 111.679 38.188 L 111.679 24.881 L 109.689 24.881 Z M 106.431 30.416 L 106.357 30.416 C 106.059 30.078 105.692 29.807 105.281 29.623 C 104.869 29.44 104.423 29.347 103.972 29.352 C 102.809 29.408 101.712 29.91 100.908 30.753 C 100.105 31.597 99.657 32.717 99.657 33.881 C 99.657 35.046 100.105 36.166 100.908 37.01 C 101.712 37.853 102.809 38.355 103.972 38.411 C 104.423 38.42 104.871 38.33 105.283 38.146 C 105.696 37.962 106.062 37.689 106.357 37.347 L 106.431 37.347 L 106.431 37.996 C 106.431 39.731 105.505 40.657 104.015 40.657 C 103.517 40.647 103.033 40.488 102.626 40.202 C 102.218 39.915 101.905 39.515 101.726 39.05 L 100.001 39.763 C 100.32 40.564 100.874 41.249 101.591 41.728 C 102.308 42.207 103.153 42.458 104.015 42.446 C 106.346 42.446 108.273 41.073 108.273 37.73 L 108.273 29.671 L 106.431 29.671 Z M 104.142 36.676 C 103.445 36.632 102.79 36.325 102.312 35.815 C 101.833 35.306 101.567 34.634 101.567 33.935 C 101.567 33.236 101.833 32.563 102.312 32.054 C 102.79 31.545 103.445 31.237 104.142 31.193 C 104.483 31.208 104.818 31.291 105.126 31.438 C 105.434 31.585 105.709 31.792 105.936 32.047 C 106.162 32.302 106.335 32.6 106.444 32.924 C 106.553 33.247 106.596 33.589 106.57 33.929 C 106.599 34.271 106.558 34.615 106.45 34.94 C 106.343 35.265 106.17 35.565 105.944 35.822 C 105.717 36.079 105.44 36.287 105.13 36.434 C 104.821 36.58 104.485 36.663 104.142 36.676 Z M 130.107 24.881 L 125.338 24.881 L 125.338 38.188 L 127.329 38.188 L 127.329 33.142 L 130.107 33.142 C 130.675 33.182 131.244 33.106 131.781 32.917 C 132.317 32.728 132.809 32.43 133.225 32.043 C 133.642 31.655 133.974 31.186 134.201 30.664 C 134.428 30.143 134.545 29.58 134.545 29.011 C 134.545 28.442 134.428 27.88 134.201 27.358 C 133.974 26.837 133.642 26.367 133.225 25.98 C 132.809 25.592 132.317 25.295 131.781 25.106 C 131.244 24.916 130.675 24.84 130.107 24.881 Z M 130.107 31.268 L 127.329 31.268 L 127.329 26.733 L 130.15 26.733 C 130.449 26.733 130.745 26.792 131.022 26.906 C 131.298 27.021 131.549 27.189 131.761 27.4 C 131.972 27.612 132.14 27.863 132.255 28.139 C 132.369 28.416 132.428 28.712 132.428 29.011 C 132.428 29.31 132.369 29.607 132.255 29.883 C 132.14 30.159 131.972 30.411 131.761 30.622 C 131.549 30.834 131.298 31.001 131.022 31.116 C 130.745 31.23 130.449 31.289 130.15 31.289 Z M 142.392 29.362 C 141.667 29.318 140.945 29.487 140.315 29.848 C 139.685 30.209 139.175 30.747 138.847 31.396 L 140.604 32.13 C 140.781 31.81 141.048 31.549 141.371 31.377 C 141.694 31.205 142.06 31.13 142.424 31.162 C 142.677 31.132 142.933 31.153 143.178 31.224 C 143.422 31.294 143.65 31.413 143.848 31.572 C 144.046 31.732 144.211 31.929 144.332 32.153 C 144.453 32.377 144.528 32.622 144.554 32.876 L 144.554 33.003 C 143.913 32.667 143.201 32.491 142.478 32.492 C 140.583 32.492 138.645 33.557 138.645 35.494 C 138.664 35.906 138.765 36.31 138.943 36.682 C 139.121 37.054 139.372 37.386 139.681 37.659 C 139.989 37.932 140.35 38.141 140.741 38.272 C 141.132 38.403 141.545 38.454 141.956 38.422 C 142.456 38.45 142.953 38.344 143.399 38.116 C 143.844 37.887 144.22 37.545 144.49 37.123 L 144.554 37.123 L 144.554 38.188 L 146.47 38.188 L 146.47 33.067 C 146.47 30.736 144.703 29.384 142.435 29.384 Z M 142.148 36.655 C 141.498 36.655 140.593 36.325 140.593 35.526 C 140.593 34.462 141.722 34.1 142.722 34.1 C 143.355 34.084 143.98 34.239 144.532 34.547 C 144.465 35.125 144.191 35.659 143.761 36.051 C 143.33 36.442 142.772 36.664 142.19 36.676 Z M 153.453 29.671 L 151.175 35.441 L 151.111 35.441 L 148.748 29.671 L 146.619 29.671 L 150.164 37.741 L 148.141 42.222 L 150.217 42.222 L 155.668 29.671 Z M 135.569 38.188 L 137.549 38.188 L 137.549 24.881 L 135.569 24.881 Z" fill="rgb(255,255,255)"></path><g><defs><linearGradient id="idss2561210391_10g1673948332" x1="0.9929813409527024" x2="0.007018659047297537" y1="0" y2="1"><stop offset="0" stop-color="rgb(0,160,255)" stop-opacity="1"></stop><stop offset="1" stop-color="rgb(0,227,255)" stop-opacity="1"></stop></linearGradient></defs><path d="M 32.837 14.277 C 32.486 14.692 32.307 15.225 32.337 15.768 L 32.337 39.316 C 32.301 39.859 32.48 40.395 32.837 40.807 L 32.912 40.892 L 46.102 27.702 L 46.102 27.382 L 32.912 14.203 Z" fill="url(#idss2561210391_10g1673948332)"></path></g><g><defs><linearGradient id="idss2561210391_11g43703969" x1="1" x2="0" y1="0.4974874371859296" y2="0.5025125628140704"><stop offset="0" stop-color="rgb(255,224,0)" stop-opacity="1"></stop><stop offset="1" stop-color="rgb(255,156,0)" stop-opacity="1"></stop></linearGradient></defs><path d="M 50.467 32.098 L 46.102 27.702 L 46.102 27.382 L 50.467 22.986 L 50.562 23.049 L 55.789 26.009 C 57.28 26.85 57.28 28.234 55.789 29.086 L 50.584 32.045 Z" fill="url(#idss2561210391_11g43703969)"></path></g><g><defs><linearGradient id="idss2561210391_12g1458251021" x1="0.9931943538824319" x2="0.0068056461175681204" y1="0" y2="1"><stop offset="0" stop-color="rgb(255,58,68)" stop-opacity="1"></stop><stop offset="1" stop-color="rgb(195,17,98)" stop-opacity="1"></stop></linearGradient></defs><path d="M 50.594 32.035 L 46.102 27.542 L 32.837 40.807 C 33.138 41.074 33.523 41.228 33.926 41.242 C 34.328 41.256 34.723 41.128 35.041 40.881 L 50.594 32.035" fill="url(#idss2561210391_12g1458251021)"></path></g><g><defs><linearGradient id="idss2561210391_13g-2043038355" x1="0.0000022951507189228337" x2="0.9999977048492811" y1="0" y2="1"><stop offset="0" stop-color="rgb(50,160,113)" stop-opacity="1"></stop><stop offset="1" stop-color="rgb(0,240,118)" stop-opacity="1"></stop></linearGradient></defs><path d="M 50.594 23.049 L 35.041 14.213 C 34.725 13.963 34.331 13.832 33.927 13.844 C 33.524 13.856 33.138 14.009 32.837 14.277 L 46.102 27.542 Z" fill="url(#idss2561210391_13g-2043038355)"></path></g><path d="M 50.467 31.939 L 35.041 40.721 C 34.734 40.953 34.361 41.078 33.976 41.078 C 33.592 41.078 33.218 40.953 32.912 40.721 L 32.912 40.721 L 32.837 40.796 L 32.912 40.881 C 33.218 41.113 33.592 41.238 33.976 41.238 C 34.361 41.238 34.734 41.113 35.041 40.881 L 50.594 32.035 Z" fill="rgb(0,0,0)" opacity="0.2"></path><path d="M 32.837 40.657 C 32.495 40.235 32.328 39.698 32.369 39.157 L 32.369 39.316 C 32.333 39.859 32.512 40.395 32.869 40.807 L 32.944 40.732 Z" fill="rgb(0,0,0)" opacity="0.12"></path><path d="M 55.789 28.926 L 50.467 31.939 L 50.562 32.035 L 55.789 29.075 C 56.098 28.945 56.366 28.733 56.564 28.463 C 56.763 28.194 56.885 27.875 56.918 27.542 C 56.851 27.845 56.715 28.128 56.519 28.368 C 56.322 28.609 56.073 28.8 55.789 28.926 Z" fill="rgb(0,0,0)" opacity="0.12"></path><path d="M 35.041 14.363 L 55.789 26.158 C 56.073 26.284 56.322 26.475 56.519 26.716 C 56.715 26.956 56.851 27.239 56.918 27.542 C 56.885 27.209 56.763 26.89 56.564 26.62 C 56.366 26.351 56.098 26.139 55.789 26.009 L 35.041 14.213 C 33.561 13.362 32.337 14.065 32.337 15.768 L 32.337 15.928 C 32.369 14.224 33.561 13.521 35.041 14.363 Z" fill="rgb(255,255,255)" opacity="0.25"></path></svg>