<svg xmlns="http://www.w3.org/2000/svg" width="871" height="201" fill="none"><path fill="#161817" d="M294.62 34c29.16 0 46.062 14.487 46.062 40.49 0 25.817-16.902 41.418-46.062 41.418h-32.875v48.105H235V34h59.62zm0 59.992c11.887 0 18.388-6.873 18.388-19.317 0-12.258-6.501-18.759-18.388-18.759h-32.875v38.076h32.875zM397.51 68.36c15.602 0 25.631 11.516 25.631 28.79 0 7.428-1.857 15.043-5.015 21.358h-26.188c3.529-5.943 5.386-11.329 5.386-16.344 0-7.244-3.9-11.887-10.029-11.887-9.101 0-15.787 10.958-15.787 28.046v45.69h-25.074V71.146h25.074v15.788c4.829-11.701 13.93-18.573 26.002-18.573zm97.55 65.564h27.488c-5.572 20.059-22.845 32.875-46.99 32.875-29.903 0-49.033-19.688-49.033-49.219 0-29.532 19.501-49.22 49.033-49.22 33.803 0 52.562 25.26 42.718 55.349h-65.192c1.858 13.373 9.473 21.359 22.845 21.359 9.287 0 16.159-3.9 19.131-11.144zm-19.688-44.576c-11.887 0-19.502 6.5-21.916 18.574h40.489c1.115-11.144-5.386-18.574-18.573-18.574zM584.46 68.36c30.088 0 30.088 29.903 30.088 42.719v52.934h-25.259v-52.748c0-8.73 0-21.917-14.488-21.917-12.072 0-20.802 11.701-20.802 28.975v45.69h-25.073V71.146h25.073v16.53c5.387-12.072 16.345-19.316 30.461-19.316zm103.488 24.332h-26.56v40.489c0 6.687 1.858 11.887 11.33 11.887 5.201 0 8.73-1.486 13.373-4.086v21.916c-4.458 2.415-10.587 3.901-18.202 3.901-29.531 0-31.76-21.545-31.76-33.432V92.692h-18.388V71.147h18.388v-25.26h25.259v25.26h26.56V92.69zm65.196-21.545h25.259v92.866h-25.259v-15.23c-6.315 11.144-16.902 17.459-29.718 17.459-26.002 0-29.903-26.56-29.903-42.905v-52.19h25.26v52.19c0 11.516 2.786 21.917 14.302 21.917 12.258 0 20.059-11.144 20.059-27.303V71.147zm74.645 95.652c-26.931 0-44.018-13.373-43.275-34.918h24.331c-.558 9.287 6.686 15.044 18.944 15.044 9.844 0 16.716-3.714 16.716-9.286 0-15.788-58.877-3.343-58.877-38.633 0-19.13 17.459-30.645 41.047-30.645 25.445 0 44.39 13.186 40.675 35.103h-24.516c2.228-9.1-4.829-15.23-16.159-15.23-9.472 0-15.045 4.272-15.045 9.472 0 16.345 58.878 2.972 58.878 38.447 0 19.316-17.645 30.646-42.719 30.646z"/><path fill="#7AD157" d="M159.995 78.615C159.254 35.078 123.719 0 79.997 0 35.82 0 0 35.82 0 79.998c0 43.314 34.412 78.589 77.392 79.96a60.85 60.85 0 0 0 2.606.049c44.19 0 80.009-35.819 80.009-80.01 0-.456 0-.925-.012-1.382zm-41.524 4.062-24.892 9.21a2.929 2.929 0 0 0-1.691 1.692l-9.211 24.892c-.457 1.247-1.568 1.865-2.68 1.865-1.11 0-2.222-.618-2.679-1.865l-9.21-24.892a2.862 2.862 0 0 0-1.692-1.691l-24.892-9.211c-1.235-.457-1.865-1.568-1.865-2.68 0-1.098.63-2.21 1.865-2.679l24.892-9.21a2.799 2.799 0 0 0 1.691-1.692l9.211-24.892c.926-2.482 4.445-2.482 5.359 0l9.21 24.892c.297.79.915 1.407 1.692 1.691l24.892 9.211c.704.272 1.21.741 1.519 1.297.235.432.358.901.358 1.383 0 1.11-.63 2.222-1.877 2.679z"/><path fill="url(#a)" d="M77.293 159.896c-6.297 22.843-29.133 40.129-54.45 40.129H0V79.911c0 43.229 35.807 78.751 77.293 79.985z"/><path fill="#7AD157" d="M160.007 79.998c0 44.19-36.535 81.133-82.714 79.96a106.876 106.876 0 0 0 2.704-23.889v-15.733c1.112 0 2.223-.618 2.68-1.865l9.21-24.892a2.929 2.929 0 0 1 1.692-1.691l24.892-9.211c1.247-.457 1.877-1.568 1.877-2.68h39.659z" opacity=".15"/><defs><linearGradient id="a" x1="57.582" x2="-40.688" y1="91.483" y2="236.888" gradientUnits="userSpaceOnUse"><stop stop-color="#7AD157"/><stop offset="1" stop-color="#7AD157" stop-opacity=".8"/></linearGradient></defs></svg>