<svg width="475" height="400" viewBox="0 0 475 400" fill="none" xmlns="http://www.w3.org/2000/svg">
<path fill-rule="evenodd" clip-rule="evenodd" d="M40 80C39.92 57.9358 22.0422 40.0742 0 40.0742C22.0914 40.0742 40 22.1321 40 0C40.0796 22.0642 57.9578 39.9258 80 39.9258C57.9082 39.9258 40 57.8679 40 80Z" fill="#CFFF92" fill-opacity="0.3"/>
<path fill-rule="evenodd" clip-rule="evenodd" d="M120 80C119.92 57.9358 102.042 40.0742 80 40.0742C102.091 40.0742 120 22.1321 120 0C120.08 22.0642 137.958 39.9258 160 39.9258C137.908 39.9258 120 57.8679 120 80Z" fill="#CFFF92" fill-opacity="0.3"/>
<path fill-rule="evenodd" clip-rule="evenodd" d="M200 80C199.92 57.9358 182.042 40.0742 160 40.0742C182.091 40.0742 200 22.1321 200 0C200.08 22.0642 217.958 39.9258 240 39.9258C217.908 39.9258 200 57.8679 200 80Z" fill="#CFFF92" fill-opacity="0.3"/>
<path fill-rule="evenodd" clip-rule="evenodd" d="M280 80C279.92 57.9358 262.042 40.0742 240 40.0742C262.091 40.0742 280 22.1321 280 0C280.08 22.0642 297.958 39.9258 320 39.9258C297.908 39.9258 280 57.8679 280 80Z" fill="#CFFF92" fill-opacity="0.3"/>
<path fill-rule="evenodd" clip-rule="evenodd" d="M360 80C359.92 57.9358 342.042 40.0742 320 40.0742C342.091 40.0742 360 22.1321 360 0C360.08 22.0642 377.958 39.9258 400 39.9258C377.908 39.9258 360 57.8679 360 80Z" fill="#CFFF92" fill-opacity="0.3"/>
<path fill-rule="evenodd" clip-rule="evenodd" d="M435 80C434.92 57.9358 417.042 40.0742 395 40.0742C417.091 40.0742 435 22.1321 435 0C435.08 22.0642 452.958 39.9258 475 39.9258C452.908 39.9258 435 57.8679 435 80Z" fill="#CFFF92" fill-opacity="0.3"/>
<path fill-rule="evenodd" clip-rule="evenodd" d="M40 160C39.92 137.936 22.0422 120.074 0 120.074C22.0914 120.074 40 102.132 40 80C40.0796 102.064 57.9578 119.926 80 119.926C57.9082 119.926 40 137.868 40 160Z" fill="#CFFF92" fill-opacity="0.3"/>
<path fill-rule="evenodd" clip-rule="evenodd" d="M120 160C119.92 137.936 102.042 120.074 80 120.074C102.091 120.074 120 102.132 120 80C120.08 102.064 137.958 119.926 160 119.926C137.908 119.926 120 137.868 120 160Z" fill="#CFFF92" fill-opacity="0.3"/>
<path fill-rule="evenodd" clip-rule="evenodd" d="M200 160C199.92 137.936 182.042 120.074 160 120.074C182.091 120.074 200 102.132 200 80C200.08 102.064 217.958 119.926 240 119.926C217.908 119.926 200 137.868 200 160Z" fill="#CFFF92" fill-opacity="0.3"/>
<path fill-rule="evenodd" clip-rule="evenodd" d="M280 160C279.92 137.936 262.042 120.074 240 120.074C262.091 120.074 280 102.132 280 80C280.08 102.064 297.958 119.926 320 119.926C297.908 119.926 280 137.868 280 160Z" fill="#CFFF92" fill-opacity="0.3"/>
<path fill-rule="evenodd" clip-rule="evenodd" d="M360 160C359.92 137.936 342.042 120.074 320 120.074C342.091 120.074 360 102.132 360 80C360.08 102.064 377.958 119.926 400 119.926C377.908 119.926 360 137.868 360 160Z" fill="#CFFF92" fill-opacity="0.3"/>
<path fill-rule="evenodd" clip-rule="evenodd" d="M40 240C39.92 217.936 22.0422 200.074 0 200.074C22.0914 200.074 40 182.132 40 160C40.0796 182.064 57.9578 199.926 80 199.926C57.9082 199.926 40 217.868 40 240Z" fill="#CFFF92" fill-opacity="0.3"/>
<path fill-rule="evenodd" clip-rule="evenodd" d="M120 240C119.92 217.936 102.042 200.074 80 200.074C102.091 200.074 120 182.132 120 160C120.08 182.064 137.958 199.926 160 199.926C137.908 199.926 120 217.868 120 240Z" fill="#CFFF92" fill-opacity="0.3"/>
<path fill-rule="evenodd" clip-rule="evenodd" d="M200 240C199.92 217.936 182.042 200.074 160 200.074C182.091 200.074 200 182.132 200 160C200.08 182.064 217.958 199.926 240 199.926C217.908 199.926 200 217.868 200 240Z" fill="#CFFF92" fill-opacity="0.3"/>
<path fill-rule="evenodd" clip-rule="evenodd" d="M280 240C279.92 217.936 262.042 200.074 240 200.074C262.091 200.074 280 182.132 280 160C280.08 182.064 297.958 199.926 320 199.926C297.908 199.926 280 217.868 280 240Z" fill="#CFFF92" fill-opacity="0.3"/>
<path fill-rule="evenodd" clip-rule="evenodd" d="M40 320C39.92 297.936 22.0422 280.074 0 280.074C22.0914 280.074 40 262.132 40 240C40.0796 262.064 57.9578 279.926 80 279.926C57.9082 279.926 40 297.868 40 320Z" fill="#CFFF92" fill-opacity="0.3"/>
<path fill-rule="evenodd" clip-rule="evenodd" d="M120 320C119.92 297.936 102.042 280.074 80 280.074C102.091 280.074 120 262.132 120 240C120.08 262.064 137.958 279.926 160 279.926C137.908 279.926 120 297.868 120 320Z" fill="#CFFF92" fill-opacity="0.3"/>
<path fill-rule="evenodd" clip-rule="evenodd" d="M200 320C199.92 297.936 182.042 280.074 160 280.074C182.091 280.074 200 262.132 200 240C200.08 262.064 217.958 279.926 240 279.926C217.908 279.926 200 297.868 200 320Z" fill="#CFFF92" fill-opacity="0.3"/>
<path fill-rule="evenodd" clip-rule="evenodd" d="M40 400C39.92 377.936 22.0422 360.074 0 360.074C22.0914 360.074 40 342.132 40 320C40.0796 342.064 57.9578 359.926 80 359.926C57.9082 359.926 40 377.868 40 400Z" fill="#CFFF92" fill-opacity="0.3"/>
<path fill-rule="evenodd" clip-rule="evenodd" d="M120 400C119.92 377.936 102.042 360.074 80 360.074C102.091 360.074 120 342.132 120 320C120.08 342.064 137.958 359.926 160 359.926C137.908 359.926 120 377.868 120 400Z" fill="#CFFF92" fill-opacity="0.3"/>
</svg>
